<svg id="b37e9d3d-8ec0-4371-b251-877706362d98" data-name="Layer 1" xmlns="http://www.w3.org/2000/svg" viewBox="0 0 37.62 37.62"><defs><style>.a6bd1245-4a12-4ea3-b7df-a72dc99cf6dd{fill:#fd8369;}.a2244ce2-4063-47af-80ff-2eeb8a1060f0{fill:#ea6552;}.b94326e0-d24b-4c2c-8614-e6caff07142c{fill:#343b43;}.e20288f5-7326-412e-8241-462618a44d72{fill:#fff;}.ba7b3556-9b58-4035-8b27-efee38e4e411{fill:#fece66;}.b619e33c-d36a-425b-9d42-54dd7b73eb9c{fill:#8fdef6;}</style></defs><circle class="a6bd1245-4a12-4ea3-b7df-a72dc99cf6dd" cx="18.81" cy="18.81" r="18.81" transform="translate(-7.79 18.81) rotate(-45)"/><path class="a2244ce2-4063-47af-80ff-2eeb8a1060f0" d="M28.92,10.78h0a.74.74,0,0,0-.5-.2H9.22a.72.72,0,0,0-.72.73v15a.73.73,0,0,0,.21.52L19.46,37.61A18.81,18.81,0,0,0,37.6,19.46Z"/><path class="b94326e0-d24b-4c2c-8614-e6caff07142c" d="M29.13,26.33a.74.74,0,0,1-.22.52.73.73,0,0,1-.51.21H9.22a.73.73,0,0,1-.51-.21.74.74,0,0,1-.22-.52V14.27H29.13Z"/><path class="e20288f5-7326-412e-8241-462618a44d72" d="M29.13,14.27H8.49v-3a.74.74,0,0,1,.22-.52.73.73,0,0,1,.51-.21H28.4a.73.73,0,0,1,.51.21.74.74,0,0,1,.22.52Z"/><polygon class="e20288f5-7326-412e-8241-462618a44d72" points="16.1 23.27 13.49 20.67 16.1 18.06 16.78 18.75 14.87 20.67 16.78 22.58 16.1 23.27"/><polygon class="e20288f5-7326-412e-8241-462618a44d72" points="21.52 23.27 20.84 22.58 22.75 20.67 20.84 18.75 21.52 18.06 24.13 20.67 21.52 23.27"/><rect class="e20288f5-7326-412e-8241-462618a44d72" x="15.03" y="20.18" width="7.57" height="0.97" transform="translate(-6.22 33.1) rotate(-74.11)"/><path class="a6bd1245-4a12-4ea3-b7df-a72dc99cf6dd" d="M10.92,12.41a.61.61,0,1,1-.61-.6A.61.61,0,0,1,10.92,12.41Z"/><path class="ba7b3556-9b58-4035-8b27-efee38e4e411" d="M12.74,12.41a.61.61,0,1,1-.6-.6A.6.6,0,0,1,12.74,12.41Z"/><path class="b619e33c-d36a-425b-9d42-54dd7b73eb9c" d="M14.56,12.41a.61.61,0,1,1-.6-.6A.6.6,0,0,1,14.56,12.41Z"/></svg>