<svg id="b8d5550e-632b-49d9-b722-3feecd9c5ef0" data-name="Layer 1" xmlns="http://www.w3.org/2000/svg" viewBox="0 0 37.62 37.62"><defs><style>.fe7f6288-6687-4598-9e40-37b906e17720{fill:#fd8369;}.bbdc3422-a53f-455f-af0c-140de76c295e{fill:#ea6552;}.acd6d2f8-72a7-4087-834b-b590432ba8d4{fill:#fff;}.fc58f188-c95c-49d9-a96f-ff2d8b219a01{fill:#343b43;}.bf25d6cb-8e7c-45f2-b360-99137ad8ddd5{fill:#fece66;}</style></defs><circle class="fe7f6288-6687-4598-9e40-37b906e17720" cx="18.81" cy="18.81" r="18.81" transform="translate(-7.79 18.81) rotate(-45)"/><path class="bbdc3422-a53f-455f-af0c-140de76c295e" d="M20.14,37.57A18.8,18.8,0,0,0,37.57,20.14L28,10.42l-1.8.61L26,10.85,23.51,8.32h0A.75.75,0,0,0,23,8.1H9a.73.73,0,0,0-.73.73v14a.76.76,0,0,0,.17.46l.1.1L11,25.87l.17.17-.61,1.81Z"/><rect class="acd6d2f8-72a7-4087-834b-b590432ba8d4" x="8.27" y="8.1" width="15.44" height="15.44" rx="0.73"/><path class="fc58f188-c95c-49d9-a96f-ff2d8b219a01" d="M25.73,11.75h-.85v-.66h.85Zm-1.71,0h-.86v-.66H24Zm-1.71,0h-.86v-.66h.86Zm-1.72,0h-.85v-.66h.85Zm-1.71,0H18v-.66h.86Zm-1.71,0h-.86v-.66h.86Zm-1.71,0H14.6v-.66h.86Zm-1.72,0h-.85v-.66h.85Z"/><path class="fc58f188-c95c-49d9-a96f-ff2d8b219a01" d="M11.92,25.56h-.66v-.85h.66Zm0-1.71h-.66V23h.66Zm0-1.71h-.66v-.86h.66Zm0-1.72h-.66v-.85h.66Zm0-1.71h-.66v-.86h.66Zm0-1.71h-.66v-.86h.66Zm0-1.72h-.66v-.85h.66Zm0-1.71h-.66v-.85h.66Z"/><path class="fc58f188-c95c-49d9-a96f-ff2d8b219a01" d="M25.73,27.19h-.85v-.66h.85Zm-1.71,0h-.86v-.66H24Zm-1.71,0h-.86v-.66h.86Zm-1.72,0h-.85v-.66h.85Zm-1.71,0H18v-.66h.86Zm-1.71,0h-.86v-.66h.86Zm-1.71,0H14.6v-.66h.86Zm-1.72,0h-.85v-.66h.85Z"/><path class="fc58f188-c95c-49d9-a96f-ff2d8b219a01" d="M27.36,25.56H26.7v-.85h.66Zm0-1.71H26.7V23h.66Zm0-1.71H26.7v-.86h.66Zm0-1.72H26.7v-.85h.66Zm0-1.71H26.7v-.86h.66Zm0-1.71H26.7v-.86h.66Zm0-1.72H26.7v-.85h.66Zm0-1.71H26.7v-.85h.66Z"/><path class="fc58f188-c95c-49d9-a96f-ff2d8b219a01" d="M12.58,12.41h-2v-2h2Zm-1.32-.66h.66v-.66h-.66Z"/><path class="fc58f188-c95c-49d9-a96f-ff2d8b219a01" d="M28,12.41H26v-2h2Zm-1.32-.66h.66v-.66H26.7Z"/><path class="fc58f188-c95c-49d9-a96f-ff2d8b219a01" d="M12.58,27.85h-2v-2h2Zm-1.32-.66h.66v-.66h-.66Z"/><path class="fc58f188-c95c-49d9-a96f-ff2d8b219a01" d="M28,27.85H26v-2h2Zm-1.32-.66h.66v-.66H26.7Z"/><path class="fc58f188-c95c-49d9-a96f-ff2d8b219a01" d="M17.82,29.36h1.27v.21h.46v-.24a.43.43,0,0,0-.43-.43H17.79a.42.42,0,0,0-.42.43v.24h.45Zm0,0"/><path class="fc58f188-c95c-49d9-a96f-ff2d8b219a01" d="M20.6,31.38H16.31a.21.21,0,0,0-.2.22L16.47,36a.48.48,0,0,0,.48.44h3a.47.47,0,0,0,.47-.44l.36-4.43a.2.2,0,0,0-.2-.22ZM17.35,36h0a.24.24,0,0,1-.23-.22l-.23-3.64a.24.24,0,0,1,.22-.24.23.23,0,0,1,.24.21l.22,3.64a.23.23,0,0,1-.21.25Zm1.34-.23a.23.23,0,0,1-.46,0V32.13a.23.23,0,1,1,.46,0ZM20,32.14l-.22,3.64a.22.22,0,0,1-.22.22h0a.23.23,0,0,1-.21-.25l.21-3.63a.23.23,0,1,1,.46,0Zm0,0"/><path class="fc58f188-c95c-49d9-a96f-ff2d8b219a01" d="M21.39,30.68l-.15-.45A.29.29,0,0,0,21,30H16a.29.29,0,0,0-.28.2l-.15.45a.19.19,0,0,0,.08.22l.1,0h5.51l.1,0a.19.19,0,0,0,.08-.22Zm0,0"/><path class="bf25d6cb-8e7c-45f2-b360-99137ad8ddd5" d="M19.06,20.43l0-.36.11-.94a1.55,1.55,0,0,0,0-.31.5.5,0,0,0-.11-.32.42.42,0,0,0-.35-.13.54.54,0,0,0-.41.18,1.12,1.12,0,0,0-.25.46c0,.28-.09.68-.16,1.21s-.12.87-.14,1h-1c.38-3,.6-4.78.68-5.46a1.75,1.75,0,0,1,.45,0q.6,0,.6.33v0c-.08.76-.18,1.43-.28,2a1.43,1.43,0,0,1,.94-.34A1.32,1.32,0,0,1,20,18a.78.78,0,0,1,.3.63,1.85,1.85,0,0,1-.05.37c-.12.73-.18,1.15-.18,1.28s.09.34.25.34a.61.61,0,0,0,.43-.25,1.91,1.91,0,0,0,.37-.77,1.3,1.3,0,0,1,.32.41Q21,21.28,20,21.28a1,1,0,0,1-.71-.22A.8.8,0,0,1,19.06,20.43Z"/></svg>