<svg id="eec7e081-a63a-49e9-b1be-525a5ad2ecf1" data-name="Layer 1" xmlns="http://www.w3.org/2000/svg" viewBox="0 0 37.62 37.62"><defs><style>.f661b88f-738f-4529-8541-c82c00ea1671{fill:#d8d7d6;}.e0a4ac37-7164-47ef-96ac-72ec5643fe53{fill:#c4c3c3;}.bf431030-ce3d-42bf-a7a9-660dbc9dbd89{fill:#e6e5e5;}.b2fef683-a1c7-42d6-96ee-48ed6e946dd0{fill:#fff;}.b4137fef-2920-4b45-beba-a680ce158634{fill:#343b43;}.bd1be784-7fca-41f2-91da-c94cc2cf7657{fill:#fece66;}.a9ddaffc-43e5-49a4-a8ef-85c2bc22de17{fill:#ea6552;}.b41f2e1e-3e27-443a-9b8f-1e0546dc9b0f{fill:#fd8369;}.a7da8089-1994-4d5e-ac58-7c03a2825982{fill:#8fdef6;}</style></defs><circle class="f661b88f-738f-4529-8541-c82c00ea1671" cx="18.81" cy="18.81" r="18.81" transform="translate(-3.82 32.8) rotate(-76.72)"/><path class="e0a4ac37-7164-47ef-96ac-72ec5643fe53" d="M37.61,19.46l-8.7-8.69a.73.73,0,0,0-.51-.21H9.22a.72.72,0,0,0-.72.73v15a.73.73,0,0,0,.21.52L19.46,37.6A18.81,18.81,0,0,0,37.61,19.46Z"/><path class="bf431030-ce3d-42bf-a7a9-660dbc9dbd89" d="M29.13,26.33a.7.7,0,0,1-.22.52.73.73,0,0,1-.51.21H9.22a.72.72,0,0,1-.72-.73V14.27H29.13Z"/><path class="b2fef683-a1c7-42d6-96ee-48ed6e946dd0" d="M29.13,14.27H8.5v-3a.72.72,0,0,1,.72-.73H28.4a.73.73,0,0,1,.51.21.7.7,0,0,1,.22.52Z"/><path class="b4137fef-2920-4b45-beba-a680ce158634" d="M8.71,26.85a.73.73,0,0,0,.51.21h3.52V14.27H8.5V26.33A.73.73,0,0,0,8.71,26.85Z"/><rect class="b2fef683-a1c7-42d6-96ee-48ed6e946dd0" x="9.41" y="20.71" width="2.43" height="0.54"/><rect class="b2fef683-a1c7-42d6-96ee-48ed6e946dd0" x="9.41" y="19.62" width="2.43" height="0.54"/><rect class="b2fef683-a1c7-42d6-96ee-48ed6e946dd0" x="9.41" y="18.54" width="2.43" height="0.54"/><rect class="b2fef683-a1c7-42d6-96ee-48ed6e946dd0" x="9.41" y="17.45" width="2.43" height="0.54"/><rect class="bd1be784-7fca-41f2-91da-c94cc2cf7657" x="9.41" y="16.37" width="2.43" height="0.54"/><rect class="a9ddaffc-43e5-49a4-a8ef-85c2bc22de17" x="14.2" y="16.37" width="13.47" height="3.72"/><rect class="bd1be784-7fca-41f2-91da-c94cc2cf7657" x="14.2" y="21.25" width="3.72" height="3.71"/><rect class="bd1be784-7fca-41f2-91da-c94cc2cf7657" x="19.08" y="21.25" width="3.72" height="3.71"/><rect class="bd1be784-7fca-41f2-91da-c94cc2cf7657" x="23.95" y="21.25" width="3.71" height="3.71"/><path class="b41f2e1e-3e27-443a-9b8f-1e0546dc9b0f" d="M10.92,12.41a.61.61,0,1,1-.6-.6A.6.6,0,0,1,10.92,12.41Z"/><path class="bd1be784-7fca-41f2-91da-c94cc2cf7657" d="M12.74,12.41a.61.61,0,1,1-.6-.6A.6.6,0,0,1,12.74,12.41Z"/><path class="a7da8089-1994-4d5e-ac58-7c03a2825982" d="M14.56,12.41a.61.61,0,1,1-.6-.6A.6.6,0,0,1,14.56,12.41Z"/></svg>