<svg id="eae354c5-dbfd-481d-9392-1a8d31c2b673" data-name="Layer 1" xmlns="http://www.w3.org/2000/svg" viewBox="0 0 37.62 37.62"><defs><style>.febb52c1-bbd3-44c3-a4cf-c050dc14756b{fill:#fd8369;}.b269acaa-4a9d-421d-8cac-c13dd3c24ce7{fill:#ea6552;}.b8c0f643-087c-4086-9202-aa0e769a2a86{fill:#343b43;}.bd01cc4a-46ea-40df-9fdb-30b9760b1618{fill:#e6e5e5;}.b3b26e6f-3839-432d-a12e-a82af89a839b{fill:#fff;}.f8c8a132-f1e3-4018-877a-07eb29a1aa6d{fill:#f5b540;}.b6cd3006-50e2-4f37-b626-2e18a4233a29{fill:#fece66;}</style></defs><path class="febb52c1-bbd3-44c3-a4cf-c050dc14756b" d="M37.62,18.81A18.81,18.81,0,1,1,18.81,0,18.81,18.81,0,0,1,37.62,18.81Z"/><path class="b269acaa-4a9d-421d-8cac-c13dd3c24ce7" d="M37.19,22.81,26.64,12.26,18.81,8.62,11,12.26V19a11.59,11.59,0,0,0,3,7.85l10.05,10A18.83,18.83,0,0,0,37.19,22.81Z"/><path class="b8c0f643-087c-4086-9202-aa0e769a2a86" d="M18.81,8.62,11,12.26V19a11.65,11.65,0,0,0,7.83,11,11.65,11.65,0,0,0,7.83-11V12.26Z"/><path class="bd01cc4a-46ea-40df-9fdb-30b9760b1618" d="M18.81,10.27V28.38A10.17,10.17,0,0,0,25.15,19V13.22Z"/><path class="b3b26e6f-3839-432d-a12e-a82af89a839b" d="M12.47,13.22V19a10.17,10.17,0,0,0,6.34,9.41V10.27Z"/><rect class="f8c8a132-f1e3-4018-877a-07eb29a1aa6d" x="16.48" y="18" width="4.55" height="3.19" rx="0.23"/><rect class="b6cd3006-50e2-4f37-b626-2e18a4233a29" x="17.16" y="18" width="3.19" height="3.19"/><path class="b8c0f643-087c-4086-9202-aa0e769a2a86" d="M19.18,19.33a.43.43,0,1,1-.85,0,.43.43,0,1,1,.85,0Z"/><rect class="b8c0f643-087c-4086-9202-aa0e769a2a86" x="18.57" y="19.67" width="0.36" height="0.61"/><path class="b8c0f643-087c-4086-9202-aa0e769a2a86" d="M20.34,18h-.59v-.59a1,1,0,1,0-2,0V18h-.59v-.59a1.59,1.59,0,0,1,2.72-1.12,1.57,1.57,0,0,1,.46,1.12Z"/></svg>