<svg id="bc5f9bc9-eb69-45bb-8af4-d356540e3be6" data-name="Layer 1" xmlns="http://www.w3.org/2000/svg" viewBox="0 0 37.62 37.62"><defs><style>.a60a25b8-1e8c-44a9-8b90-fe8151714f42{fill:#d8d7d6;}.acc76102-aace-4d71-bbd8-6110ea148902{fill:#c4c3c3;}.a4fa350e-d6fa-4a26-88ee-4a47c013cb2e{fill:#fff;}.bf37dfde-0e61-4edb-b2ae-91e67a40dd5e{fill:#343b43;}.aeca957f-6072-4c6a-a5c5-09d51aa645f6{fill:#e24f3b;}.a086152f-d227-4b0d-a11e-a5a5d6723baa{fill:#f5b540;}.b2e9baa2-a5da-402e-974c-dca9299e26b4{fill:#70c9e9;}.f1129ee5-47a4-42d6-a322-c83fb6c25eaa{fill:#cccbca;}.e57fd823-e527-452f-9ccb-5cfb1cd600bc{fill:#fece66;}.ac8da541-560a-4c6a-b45c-2eb0d8f2871a{fill:#495057;}.fc9eaf77-3f5a-42df-8110-581ad9514e21{fill:#1e262e;}.a71e408e-cd93-4c54-87ff-0a9298fa857c{fill:#e6e5e5;}</style></defs><path class="a60a25b8-1e8c-44a9-8b90-fe8151714f42" d="M37.62,18.81A18.81,18.81,0,1,1,18.81,0,18.81,18.81,0,0,1,37.62,18.81Z"/><path class="acc76102-aace-4d71-bbd8-6110ea148902" d="M28.91,10.77a.71.71,0,0,0-.51-.21H9.22a.72.72,0,0,0-.72.73v15a.73.73,0,0,0,.21.52L19.46,37.61A18.81,18.81,0,0,0,37.6,19.46Z"/><path class="a4fa350e-d6fa-4a26-88ee-4a47c013cb2e" d="M29.13,26.33a.74.74,0,0,1-.22.52.73.73,0,0,1-.51.21H9.22a.72.72,0,0,1-.72-.73V14.27H29.13Z"/><path class="bf37dfde-0e61-4edb-b2ae-91e67a40dd5e" d="M29.13,14.27H8.5v-3a.72.72,0,0,1,.72-.73H28.4a.73.73,0,0,1,.51.21.74.74,0,0,1,.22.52Z"/><path class="aeca957f-6072-4c6a-a5c5-09d51aa645f6" d="M10.92,12.42a.61.61,0,1,1-.6-.61A.6.6,0,0,1,10.92,12.42Z"/><path class="a086152f-d227-4b0d-a11e-a5a5d6723baa" d="M12.74,12.42a.61.61,0,1,1-.6-.61A.6.6,0,0,1,12.74,12.42Z"/><path class="b2e9baa2-a5da-402e-974c-dca9299e26b4" d="M14.56,12.42a.61.61,0,1,1-.6-.61A.6.6,0,0,1,14.56,12.42Z"/><polygon class="f1129ee5-47a4-42d6-a322-c83fb6c25eaa" points="21.16 16.96 20.9 16.96 20.9 16.43 21.43 16.43 21.43 16.96 21.16 16.96"/><path class="f1129ee5-47a4-42d6-a322-c83fb6c25eaa" d="M20.3,17h-.59v-.53h.59Zm-1.19,0h-.59v-.53h.59Zm-1.19,0h-.59v-.53h.59Z"/><rect class="f1129ee5-47a4-42d6-a322-c83fb6c25eaa" x="16.21" y="16.43" width="0.53" height="0.54"/><path class="f1129ee5-47a4-42d6-a322-c83fb6c25eaa" d="M16.73,20.52h-.52v-.6h.52Zm0-1.19h-.52v-.59h.52Zm0-1.18h-.52v-.6h.52Z"/><rect class="f1129ee5-47a4-42d6-a322-c83fb6c25eaa" x="16.21" y="21.11" width="0.53" height="0.54"/><rect class="f1129ee5-47a4-42d6-a322-c83fb6c25eaa" x="20.9" y="21.11" width="0.53" height="0.54"/><path class="f1129ee5-47a4-42d6-a322-c83fb6c25eaa" d="M21.42,20.52H20.9v-.6h.52Zm0-1.19H20.9v-.59h.52Zm0-1.18H20.9v-.6h.52Z"/><rect class="e57fd823-e527-452f-9ccb-5cfb1cd600bc" x="10.08" y="16.43" width="5.22" height="5.22"/><rect class="e57fd823-e527-452f-9ccb-5cfb1cd600bc" x="22.34" y="16.43" width="5.22" height="5.22"/><rect class="f1129ee5-47a4-42d6-a322-c83fb6c25eaa" x="10.07" y="24.09" width="5.22" height="0.82"/><rect class="f1129ee5-47a4-42d6-a322-c83fb6c25eaa" x="10.07" y="22.46" width="5.22" height="0.82"/><rect class="f1129ee5-47a4-42d6-a322-c83fb6c25eaa" x="22.34" y="24.09" width="5.22" height="0.82"/><rect class="f1129ee5-47a4-42d6-a322-c83fb6c25eaa" x="22.34" y="22.46" width="5.22" height="0.82"/><rect class="ac8da541-560a-4c6a-b45c-2eb0d8f2871a" x="17.31" y="21.63" width="1" height="5.43"/><rect class="bf37dfde-0e61-4edb-b2ae-91e67a40dd5e" x="18.31" y="21.63" width="1" height="5.43"/><rect class="fc9eaf77-3f5a-42df-8110-581ad9514e21" x="19.31" y="21.63" width="1" height="5.43"/><polygon class="a71e408e-cd93-4c54-87ff-0a9298fa857c" points="20.31 21.63 19.31 19.9 18.31 19.9 17.31 21.63 20.31 21.63"/><polygon class="f1129ee5-47a4-42d6-a322-c83fb6c25eaa" points="20.31 21.63 19.31 21.63 18.98 19.9 19.31 19.9 20.31 21.63"/><polygon class="bf37dfde-0e61-4edb-b2ae-91e67a40dd5e" points="19.31 19.9 18.81 19.04 18.31 19.9 19.31 19.9"/></svg>