<svg id="e1a2f55d-680d-493b-8f23-0b3896569263" data-name="Layer 1" xmlns="http://www.w3.org/2000/svg" viewBox="0 0 37.62 37.62"><defs><style>.b5f76b1f-3df8-4a05-b7e9-3ecb18e12043{fill:#d8d7d6;}.e75fead1-2288-4767-aea1-7bc07d49aaf9{fill:#c4c3c3;}.b5f2b54d-73a4-4113-929f-c638d19e363a{fill:#d9d8d7;}.ed6764ae-3093-43c3-b533-8fbbb7368816{fill:#fff;}.be525927-c3c2-4506-9a1d-9d9d447c74f9{fill:#343b43;}.a8a32f0d-6f02-4071-b365-3885b199023b{fill:#f5b540;}.b49c7748-5f79-49f3-8ea6-b144801cdf4f{fill:#fece66;}.a272a190-7636-4f2e-80f1-957bdb903eff{fill:#495057;}.e4140aa3-999d-4824-8c24-2faf78c3832c{fill:#ea6552;}</style></defs><circle class="b5f76b1f-3df8-4a05-b7e9-3ecb18e12043" cx="18.81" cy="18.81" r="18.81" transform="translate(-3.82 32.8) rotate(-76.72)"/><path class="e75fead1-2288-4767-aea1-7bc07d49aaf9" d="M37.61,19.4l-9.26-9.25a.66.66,0,0,0-.48-.21H9.75a.66.66,0,0,0-.48.21.63.63,0,0,0-.2.48V24.75a.69.69,0,0,0,.18.47l0,0h0L21.46,37.43A18.81,18.81,0,0,0,37.61,19.4Z"/><rect class="b5f2b54d-73a4-4113-929f-c638d19e363a" x="15.94" y="25.44" width="5.73" height="2.52"/><rect class="ed6764ae-3093-43c3-b533-8fbbb7368816" x="14.57" y="27.96" width="8.48" height="0.69"/><path class="be525927-c3c2-4506-9a1d-9d9d447c74f9" d="M9.07,23.15V10.63a.68.68,0,0,1,.68-.69H27.87a.69.69,0,0,1,.48.2.7.7,0,0,1,.21.49V23.15Z"/><rect class="ed6764ae-3093-43c3-b533-8fbbb7368816" x="10.33" y="11.2" width="16.97" height="10.68"/><path class="ed6764ae-3093-43c3-b533-8fbbb7368816" d="M28.56,24.75a.68.68,0,0,1-.21.49.69.69,0,0,1-.48.2H9.75a.69.69,0,0,1-.48-.2.67.67,0,0,1-.2-.49v-1.6H28.56Z"/><rect class="a8a32f0d-6f02-4071-b365-3885b199023b" x="11.01" y="11.89" width="4.74" height="1.61"/><rect class="a8a32f0d-6f02-4071-b365-3885b199023b" x="16.44" y="11.89" width="4.74" height="1.61"/><rect class="a8a32f0d-6f02-4071-b365-3885b199023b" x="21.87" y="11.89" width="4.74" height="1.61"/><rect class="b49c7748-5f79-49f3-8ea6-b144801cdf4f" x="11.01" y="14.18" width="4.74" height="3.16"/><rect class="b49c7748-5f79-49f3-8ea6-b144801cdf4f" x="16.44" y="14.18" width="4.74" height="3.16"/><rect class="b49c7748-5f79-49f3-8ea6-b144801cdf4f" x="21.87" y="14.18" width="4.74" height="3.16"/><rect class="b49c7748-5f79-49f3-8ea6-b144801cdf4f" x="11.01" y="18.04" width="15.59" height="3.16"/><rect class="be525927-c3c2-4506-9a1d-9d9d447c74f9" x="24.41" y="18.04" width="5.77" height="10.61" rx="0.74"/><rect class="ed6764ae-3093-43c3-b533-8fbbb7368816" x="24.83" y="19.64" width="4.94" height="7.41"/><rect class="a272a190-7636-4f2e-80f1-957bdb903eff" x="26.69" y="27.67" width="1.2" height="0.35" rx="0.15"/><path class="a272a190-7636-4f2e-80f1-957bdb903eff" d="M27.5,18.84a.2.2,0,0,1-.21.2.2.2,0,0,1-.2-.2.21.21,0,1,1,.41,0Z"/><path class="be525927-c3c2-4506-9a1d-9d9d447c74f9" d="M27.37,18.84a.07.07,0,0,1-.08.07.07.07,0,0,1-.07-.07.08.08,0,0,1,.07-.08A.08.08,0,0,1,27.37,18.84Z"/><rect class="e4140aa3-999d-4824-8c24-2faf78c3832c" x="25.2" y="20.01" width="4.19" height="1.25"/><rect class="e4140aa3-999d-4824-8c24-2faf78c3832c" x="25.2" y="21.64" width="4.19" height="2.33"/><rect class="e4140aa3-999d-4824-8c24-2faf78c3832c" x="25.2" y="24.34" width="4.19" height="2.33"/></svg>