<svg id="a0b48bff-2dd1-4f32-b248-8f86e40daf2c" data-name="Layer 1" xmlns="http://www.w3.org/2000/svg" viewBox="0 0 37.62 37.62"><defs><style>.a077ac16-ec05-4f74-b2d8-f51a50a77828{fill:#fd8369;}.a5de018f-da2f-4d83-a36a-5e2a12e84f0a{fill:#ea6552;}.b6cb62ad-bb4b-4933-888f-9f65afa56774{fill:#cccbca;}.b5b35642-d933-4dbd-881d-178c68e32583{fill:#fff;}.fc245e80-41d2-443c-b73b-22107397c07f{fill:#343b43;}.ea1dae7f-44cf-411d-a1aa-b5f1d8ec60e4{fill:#fece66;}.a59df498-3782-4601-aa7c-1dc4bba23207{fill:#d9d8d7;}</style></defs><circle class="a077ac16-ec05-4f74-b2d8-f51a50a77828" cx="18.81" cy="18.81" r="18.81" transform="translate(-7.79 18.81) rotate(-45)"/><path class="a5de018f-da2f-4d83-a36a-5e2a12e84f0a" d="M37.62,18.81h0l-8.7-8.7h0a.78.78,0,0,0-.51-.2H9.22a.72.72,0,0,0-.72.72v15a.73.73,0,0,0,.19.5l0,0h0L20.21,37.56A18.8,18.8,0,0,0,37.62,18.81Z"/><rect class="b6cb62ad-bb4b-4933-888f-9f65afa56774" x="15.78" y="26.28" width="6.07" height="2.67"/><rect class="b5b35642-d933-4dbd-881d-178c68e32583" x="14.32" y="28.95" width="8.98" height="0.73"/><path class="fc245e80-41d2-443c-b73b-22107397c07f" d="M8.5,23.85V10.61a.72.72,0,0,1,.72-.73H28.4a.73.73,0,0,1,.51.21.74.74,0,0,1,.22.52V23.85Z"/><rect class="b5b35642-d933-4dbd-881d-178c68e32583" x="9.83" y="11.21" width="17.96" height="11.31"/><path class="b5b35642-d933-4dbd-881d-178c68e32583" d="M29.13,25.55a.76.76,0,0,1-.22.52.73.73,0,0,1-.51.21H9.22a.73.73,0,0,1-.51-.21.75.75,0,0,1-.21-.52v-1.7H29.13Z"/><rect class="ea1dae7f-44cf-411d-a1aa-b5f1d8ec60e4" x="11.63" y="15.73" width="5.39" height="5.39"/><rect class="fc245e80-41d2-443c-b73b-22107397c07f" x="18.81" y="15.73" width="3.59" height="0.54"/><rect class="a59df498-3782-4601-aa7c-1dc4bba23207" x="18.81" y="16.8" width="7.19" height="0.54"/><rect class="a59df498-3782-4601-aa7c-1dc4bba23207" x="18.81" y="17.88" width="7.19" height="0.54"/><rect class="a59df498-3782-4601-aa7c-1dc4bba23207" x="18.81" y="18.96" width="7.19" height="0.54"/><rect class="a5de018f-da2f-4d83-a36a-5e2a12e84f0a" x="20.61" y="20.04" width="3.59" height="1.08"/><path class="a077ac16-ec05-4f74-b2d8-f51a50a77828" d="M9.83,11.21v2.21a.9.9,0,1,0,1.8,0V11.21Z"/><path class="a5de018f-da2f-4d83-a36a-5e2a12e84f0a" d="M11.63,11.21v2.21a.9.9,0,1,0,1.79,0V11.21Z"/><path class="a077ac16-ec05-4f74-b2d8-f51a50a77828" d="M13.42,11.21v2.21a.9.9,0,1,0,1.8,0V11.21Z"/><path class="a5de018f-da2f-4d83-a36a-5e2a12e84f0a" d="M15.22,11.21v2.21a.9.9,0,1,0,1.8,0V11.21Z"/><path class="a077ac16-ec05-4f74-b2d8-f51a50a77828" d="M17,11.21v2.21a.9.9,0,1,0,1.79,0V11.21Z"/><path class="a5de018f-da2f-4d83-a36a-5e2a12e84f0a" d="M18.81,11.21v2.21a.9.9,0,1,0,1.8,0V11.21Z"/><path class="a077ac16-ec05-4f74-b2d8-f51a50a77828" d="M20.61,11.21v2.21a.9.9,0,1,0,1.79,0V11.21Z"/><path class="a5de018f-da2f-4d83-a36a-5e2a12e84f0a" d="M22.4,11.21v2.21a.9.9,0,1,0,1.8,0V11.21Z"/><path class="a5de018f-da2f-4d83-a36a-5e2a12e84f0a" d="M26,11.21v2.21a.9.9,0,1,0,1.79,0V11.21Z"/><path class="a077ac16-ec05-4f74-b2d8-f51a50a77828" d="M24.2,11.21v2.21a.9.9,0,1,0,1.8,0V11.21Z"/></svg>