<svg id="a96a7c1c-98fc-4be1-b88b-b9c440d8650f" data-name="Layer 1" xmlns="http://www.w3.org/2000/svg" viewBox="0 0 37.62 37.62"><defs><style>.a2241d54-6d93-4278-9f84-594d09ace9dc{fill:#fd8369;}.bc0ef9cb-0e0b-4df9-bc7e-4c2c1e5b33e6{fill:#ea6552;}.b7e4a056-2830-492e-a776-6511eceda6cd{fill:#fff;}.bae0b8ef-4be4-4274-86b1-65534bffde63{fill:#343b43;}.f4e6c5b4-893c-4b84-83e6-18810be1204b{fill:#e6e5e5;}.a1d2568a-4200-4f36-b097-83324cf9638d{fill:#fece66;}</style></defs><path class="a2241d54-6d93-4278-9f84-594d09ace9dc" d="M37.62,18.81A18.81,18.81,0,1,1,18.81,0,18.81,18.81,0,0,1,37.62,18.81Z"/><path class="bc0ef9cb-0e0b-4df9-bc7e-4c2c1e5b33e6" d="M28.26,16.09a13.31,13.31,0,0,0-21,2.72,13.52,13.52,0,0,0,2.08,2.72l15.2,15.19A18.82,18.82,0,0,0,36.72,24.56Z"/><ellipse class="b7e4a056-2830-492e-a776-6511eceda6cd" cx="18.81" cy="18.81" rx="11.53" ry="6.66"/><path class="bae0b8ef-4be4-4274-86b1-65534bffde63" d="M18.81,13.35a5.46,5.46,0,1,0,5.46,5.46A5.45,5.45,0,0,0,18.81,13.35Z"/><path class="f4e6c5b4-893c-4b84-83e6-18810be1204b" d="M23.18,18.81a4.37,4.37,0,1,1-4.37-4.36A4.37,4.37,0,0,1,23.18,18.81Z"/><path class="a1d2568a-4200-4f36-b097-83324cf9638d" d="M21.15,18.81a2.34,2.34,0,1,1-2.34-2.34A2.34,2.34,0,0,1,21.15,18.81Z"/><path class="b7e4a056-2830-492e-a776-6511eceda6cd" d="M18.17,16.43a1.23,1.23,0,0,1-1.74,1.74,1.23,1.23,0,0,1,1.74-1.74Z"/><path class="b7e4a056-2830-492e-a776-6511eceda6cd" d="M19.24,18.81a.43.43,0,1,1-.43-.43A.43.43,0,0,1,19.24,18.81Z"/><path class="bae0b8ef-4be4-4274-86b1-65534bffde63" d="M20.14,23.76V29a1.33,1.33,0,0,1-2.66,0V23.76Z"/></svg>