<svg xmlns="http://www.w3.org/2000/svg" width="189.534" height="120.764" viewBox="0 0 189.534 120.764">
  <g id="Group_188" data-name="Group 188" transform="translate(578.826 -263.615) rotate(90)">
    <g id="Group_53" data-name="Group 53" transform="translate(263.615 389.32)">
      <path id="Path_105" data-name="Path 105" d="M268.033,396.915v-3.192h3.181a.406.406,0,1,0,.006-.813h-3.194v-3.193a.406.406,0,1,0-.813,0v3.193h-3.189a.406.406,0,1,0-.006.813h3.2v3.192a.406.406,0,1,0,.813,0Z" transform="translate(-263.615 -389.311)" fill="#fff"/>
      <path id="Path_106" data-name="Path 106" d="M268.032,407.224v-3.193h3.181a.408.408,0,0,0,.408-.408v0a.4.4,0,0,0-.4-.4h-3.193v-3.193a.406.406,0,1,0-.813,0v3.193h-3.189a.4.4,0,0,0-.406.4h0a.409.409,0,0,0,.4.411h3.194v3.193a.406.406,0,1,0,.813,0Z" transform="translate(-263.614 -384.493)" fill="#fff"/>
      <path id="Path_107" data-name="Path 107" d="M268.033,417.529v-3.193h3.181a.406.406,0,0,0,.006-.813h-3.194v-3.191a.406.406,0,1,0-.813,0v3.191h-3.189a.406.406,0,0,0-.006.813h3.2v3.193a.406.406,0,1,0,.813,0Z" transform="translate(-263.615 -379.677)" fill="#fff"/>
      <path id="Path_108" data-name="Path 108" d="M268.032,427.833v-3.191h3.181a.406.406,0,0,0,0-.813h-3.189v-3.187a.406.406,0,0,0-.813,0v3.184h-3.189a.406.406,0,1,0,0,.813h3.193v3.192a.406.406,0,1,0,.813,0Z" transform="translate(-263.614 -374.859)" fill="#fff"/>
      <path id="Path_109" data-name="Path 109" d="M268.025,438.143v-3.189h3.181a.408.408,0,1,0,.05-.814.283.283,0,0,0-.05,0h-3.189v-3.193a.406.406,0,1,0-.813,0v3.193h-3.189a.408.408,0,0,0,0,.814h3.193v3.189a.406.406,0,1,0,.813,0Z" transform="translate(-263.606 -370.042)" fill="#fff"/>
      <path id="Path_110" data-name="Path 110" d="M268.032,448.452v-3.193h3.181a.4.4,0,1,0,0-.81h-3.189v-3.193a.406.406,0,0,0-.813,0v3.194h-3.189a.4.4,0,0,0,0,.81h3.193v3.193a.406.406,0,0,0,.813,0Z" transform="translate(-263.614 -365.224)" fill="#fff"/>
      <path id="Path_111" data-name="Path 111" d="M268.032,458.758v-3.188h3.181a.406.406,0,0,0,0-.813h-3.189v-3.19a.406.406,0,0,0-.813,0v3.19h-3.189a.406.406,0,0,0,0,.813h3.193v3.193a.406.406,0,1,0,.813,0Z" transform="translate(-263.614 -360.406)" fill="#fff"/>
      <path id="Path_112" data-name="Path 112" d="M268.032,469.067v-3.194h3.181a.406.406,0,1,0,0-.813h-3.189v-3.189a.406.406,0,0,0-.813,0v3.189h-3.189a.406.406,0,1,0,0,.813h3.193v3.194a.406.406,0,1,0,.813,0Z" transform="translate(-263.614 -355.59)" fill="#fff"/>
      <path id="Path_113" data-name="Path 113" d="M268.032,479.372v-3.188h3.181a.409.409,0,0,0,0-.819h-3.189v-3.189a.406.406,0,0,0-.813,0v3.189h-3.189a.409.409,0,0,0,0,.819h3.193v3.188a.406.406,0,1,0,.813,0Z" transform="translate(-263.614 -350.774)" fill="#fff"/>
      <path id="Path_114" data-name="Path 114" d="M268.031,489.681v-3.193h3.181a.4.4,0,1,0,0-.808h-3.189v-3.194a.406.406,0,0,0-.813,0v3.194h-3.189a.4.4,0,0,0,0,.808h3.193v3.193a.406.406,0,0,0,.813,0Z" transform="translate(-263.613 -345.956)" fill="#fff"/>
      <path id="Path_115" data-name="Path 115" d="M268.032,499.99V496.8h3.181a.406.406,0,1,0,0-.813h-3.189v-3.189a.406.406,0,1,0-.813,0v3.189h-3.189a.406.406,0,0,0,0,.813h3.193v3.194a.406.406,0,0,0,.813,0Z" transform="translate(-263.614 -341.138)" fill="#fff"/>
      <path id="Path_116" data-name="Path 116" d="M268.032,510.29V507.1h3.181a.4.4,0,1,0,0-.81h-3.189V503.1a.406.406,0,0,0-.813,0v3.193h-3.189a.4.4,0,0,0,0,.81h3.193v3.187a.406.406,0,1,0,.813,0Z" transform="translate(-263.614 -336.322)" fill="#fff"/>
      <path id="Path_117" data-name="Path 117" d="M268.025,520.6v-3.193h3.181a.408.408,0,1,0,.05-.814.283.283,0,0,0-.05,0h-3.189v-3.189a.406.406,0,0,0-.813,0V516.6h-3.189a.408.408,0,0,0,0,.814h3.193V520.6a.406.406,0,1,0,.813,0Z" transform="translate(-263.606 -331.505)" fill="#fff"/>
    </g>
    <g id="Group_54" data-name="Group 54" transform="translate(277.71 389.32)">
      <path id="Path_118" data-name="Path 118" d="M277.635,396.915v-3.192h3.193a.406.406,0,0,0,.006-.813h-3.2v-3.193a.406.406,0,1,0-.813,0v3.193H273.63a.406.406,0,0,0-.006.813h3.2v3.192a.406.406,0,0,0,.813,0Z" transform="translate(-273.221 -389.311)" fill="#fff"/>
      <path id="Path_119" data-name="Path 119" d="M277.634,407.224v-3.193h3.193a.408.408,0,0,0,.406-.409h0a.4.4,0,0,0-.406-.4h-3.193v-3.193a.406.406,0,1,0-.813,0v3.193h-3.191a.4.4,0,0,0-.406.4v0a.407.407,0,0,0,.4.411h3.2v3.193a.406.406,0,1,0,.813,0Z" transform="translate(-273.22 -384.493)" fill="#fff"/>
      <path id="Path_120" data-name="Path 120" d="M277.633,417.529v-3.193h3.193a.406.406,0,0,0,0-.813h-3.193v-3.191a.406.406,0,1,0-.813,0v3.191h-3.191a.406.406,0,0,0,0,.813h3.191v3.193a.406.406,0,1,0,.813,0Z" transform="translate(-273.219 -379.677)" fill="#fff"/>
      <path id="Path_121" data-name="Path 121" d="M277.634,427.833v-3.191h3.193a.406.406,0,0,0,0-.813h-3.193v-3.187a.406.406,0,0,0-.813,0v3.184h-3.191a.406.406,0,1,0,0,.813h3.191v3.192a.406.406,0,0,0,.813,0Z" transform="translate(-273.22 -374.859)" fill="#fff"/>
      <path id="Path_122" data-name="Path 122" d="M277.626,438.143v-3.189h3.193a.408.408,0,0,0,0-.814h-3.193v-3.193a.406.406,0,1,0-.813,0v3.193h-3.191a.408.408,0,0,0,0,.814h3.191v3.189a.406.406,0,0,0,.813,0Z" transform="translate(-273.212 -370.042)" fill="#fff"/>
      <path id="Path_123" data-name="Path 123" d="M277.633,448.452v-3.193h3.193a.4.4,0,1,0,0-.81h-3.193v-3.193a.406.406,0,0,0-.813,0v3.194h-3.191a.4.4,0,0,0,0,.81h3.191v3.193a.406.406,0,0,0,.813,0Z" transform="translate(-273.22 -365.224)" fill="#fff"/>
      <path id="Path_124" data-name="Path 124" d="M277.634,458.758v-3.188h3.193a.406.406,0,0,0,0-.813h-3.193v-3.19a.406.406,0,0,0-.813,0v3.19h-3.191a.406.406,0,0,0,0,.813h3.191v3.193a.406.406,0,1,0,.813,0Z" transform="translate(-273.22 -360.406)" fill="#fff"/>
      <path id="Path_125" data-name="Path 125" d="M277.634,469.067v-3.194h3.193a.406.406,0,1,0,0-.813h-3.193v-3.189a.406.406,0,0,0-.813,0v3.189h-3.191a.406.406,0,1,0,0,.813h3.191v3.194a.406.406,0,1,0,.813,0Z" transform="translate(-273.22 -355.59)" fill="#fff"/>
      <path id="Path_126" data-name="Path 126" d="M277.633,479.372v-3.188h3.193a.409.409,0,0,0,0-.819h-3.193v-3.189a.406.406,0,0,0-.813,0v3.189h-3.191a.409.409,0,0,0,0,.819h3.191v3.188a.406.406,0,1,0,.813,0Z" transform="translate(-273.22 -350.774)" fill="#fff"/>
      <path id="Path_127" data-name="Path 127" d="M277.633,489.681v-3.193h3.193a.4.4,0,1,0,0-.808h-3.193v-3.194a.406.406,0,0,0-.813,0v3.194h-3.191a.4.4,0,0,0,0,.808h3.191v3.193a.406.406,0,0,0,.813,0Z" transform="translate(-273.219 -345.956)" fill="#fff"/>
      <path id="Path_128" data-name="Path 128" d="M277.634,499.99V496.8h3.193a.406.406,0,1,0,0-.813h-3.193v-3.189a.406.406,0,1,0-.813,0v3.189h-3.191a.406.406,0,0,0,0,.813h3.191v3.194a.406.406,0,0,0,.813,0Z" transform="translate(-273.22 -341.138)" fill="#fff"/>
      <path id="Path_129" data-name="Path 129" d="M277.633,510.29V507.1h3.193a.4.4,0,1,0,0-.81h-3.193V503.1a.406.406,0,0,0-.813,0v3.193h-3.191a.4.4,0,0,0,0,.81h3.191v3.187a.406.406,0,1,0,.813,0Z" transform="translate(-273.22 -336.322)" fill="#fff"/>
      <path id="Path_130" data-name="Path 130" d="M277.626,520.6v-3.193h3.193a.408.408,0,0,0,0-.814h-3.193v-3.189a.406.406,0,0,0-.813,0V516.6h-3.191a.408.408,0,0,0,0,.814h3.191V520.6a.406.406,0,1,0,.813,0Z" transform="translate(-273.212 -331.505)" fill="#fff"/>
    </g>
    <g id="Group_55" data-name="Group 55" transform="translate(291.783 389.32)">
      <path id="Path_131" data-name="Path 131" d="M287.241,396.915v-3.192h3.191a.406.406,0,1,0,.006-.813h-3.2v-3.193a.406.406,0,1,0-.813,0v3.193h-3.191a.406.406,0,1,0-.006.813h3.2v3.192a.406.406,0,0,0,.813,0Z" transform="translate(-282.804 -389.311)" fill="#fff"/>
      <path id="Path_132" data-name="Path 132" d="M287.24,407.224v-3.193h3.192a.406.406,0,0,0,.406-.406v0a.4.4,0,0,0-.4-.4H287.24v-3.193a.406.406,0,1,0-.813,0v3.193h-3.191a.4.4,0,0,0-.408.4v0a.41.41,0,0,0,.408.411h3.191v3.193a.406.406,0,1,0,.813,0Z" transform="translate(-282.804 -384.493)" fill="#fff"/>
      <path id="Path_133" data-name="Path 133" d="M287.241,417.529v-3.193h3.191a.406.406,0,0,0,0-.813h-3.191v-3.191a.406.406,0,1,0-.813,0v3.191h-3.191a.406.406,0,1,0-.006.813h3.2v3.193a.406.406,0,1,0,.813,0Z" transform="translate(-282.804 -379.677)" fill="#fff"/>
      <path id="Path_134" data-name="Path 134" d="M287.24,427.833v-3.191h3.192a.406.406,0,0,0,0-.813H287.24v-3.187a.406.406,0,0,0-.813,0v3.184h-3.191a.406.406,0,1,0,0,.813h3.191v3.192a.406.406,0,0,0,.813,0Z" transform="translate(-282.803 -374.859)" fill="#fff"/>
      <path id="Path_135" data-name="Path 135" d="M287.248,438.143v-3.189h3.191a.408.408,0,0,0,0-.814h-3.191v-3.193a.406.406,0,1,0-.813,0v3.193h-3.191a.408.408,0,1,0-.048.814h3.24v3.189a.406.406,0,0,0,.813,0Z" transform="translate(-282.812 -370.042)" fill="#fff"/>
      <path id="Path_136" data-name="Path 136" d="M287.239,448.452v-3.193h3.191a.4.4,0,1,0,0-.81h-3.191v-3.193a.406.406,0,0,0-.813,0v3.194h-3.191a.4.4,0,1,0,0,.81h3.191v3.193a.406.406,0,0,0,.813,0Z" transform="translate(-282.803 -365.224)" fill="#fff"/>
      <path id="Path_137" data-name="Path 137" d="M287.24,458.758v-3.188h3.192a.406.406,0,0,0,0-.813H287.24v-3.19a.406.406,0,0,0-.813,0v3.19h-3.191a.406.406,0,0,0,0,.813h3.191v3.193a.406.406,0,1,0,.813,0Z" transform="translate(-282.803 -360.406)" fill="#fff"/>
      <path id="Path_138" data-name="Path 138" d="M287.24,469.067v-3.194h3.192a.406.406,0,0,0,0-.813H287.24v-3.189a.406.406,0,0,0-.813,0v3.189h-3.191a.406.406,0,1,0,0,.813h3.191v3.194a.406.406,0,1,0,.813,0Z" transform="translate(-282.803 -355.59)" fill="#fff"/>
      <path id="Path_139" data-name="Path 139" d="M287.239,479.372v-3.188h3.191a.409.409,0,0,0,0-.819h-3.191v-3.189a.406.406,0,0,0-.813,0v3.189h-3.191a.409.409,0,0,0,0,.819h3.191v3.188a.406.406,0,1,0,.813,0Z" transform="translate(-282.803 -350.774)" fill="#fff"/>
      <path id="Path_140" data-name="Path 140" d="M287.239,489.681v-3.193h3.192a.4.4,0,1,0,0-.808h-3.192v-3.194a.406.406,0,0,0-.813,0v3.194h-3.191a.4.4,0,0,0,0,.808h3.191v3.193a.406.406,0,0,0,.813,0Z" transform="translate(-282.802 -345.956)" fill="#fff"/>
      <path id="Path_141" data-name="Path 141" d="M287.24,499.99V496.8h3.192a.406.406,0,0,0,0-.813H287.24v-3.189a.406.406,0,1,0-.813,0v3.189h-3.191a.406.406,0,1,0,0,.813h3.191v3.194a.406.406,0,0,0,.813,0Z" transform="translate(-282.803 -341.138)" fill="#fff"/>
      <path id="Path_142" data-name="Path 142" d="M287.239,510.29V507.1h3.191a.4.4,0,1,0,0-.81h-3.191V503.1a.406.406,0,0,0-.813,0v3.193h-3.191a.4.4,0,1,0,0,.81h3.191v3.187a.406.406,0,1,0,.813,0Z" transform="translate(-282.803 -336.322)" fill="#fff"/>
      <path id="Path_143" data-name="Path 143" d="M287.248,520.6v-3.193h3.191a.408.408,0,0,0,0-.814h-3.191v-3.189a.406.406,0,0,0-.813,0V516.6h-3.191a.408.408,0,1,0-.048.814h3.24V520.6a.406.406,0,1,0,.813,0Z" transform="translate(-282.812 -331.505)" fill="#fff"/>
    </g>
    <g id="Group_56" data-name="Group 56" transform="translate(305.9 389.32)">
      <path id="Path_144" data-name="Path 144" d="M296.842,396.915v-3.192h3.193a.406.406,0,0,0,0-.813h-3.193v-3.193a.406.406,0,1,0-.813,0v3.193h-3.191a.406.406,0,0,0,0,.813h3.191v3.192a.406.406,0,0,0,.813,0Z" transform="translate(-292.431 -389.311)" fill="#fff"/>
      <path id="Path_145" data-name="Path 145" d="M296.842,407.224v-3.193h3.193a.4.4,0,0,0,.4-.406v0a.4.4,0,0,0-.4-.4h-3.2v-3.193a.406.406,0,1,0-.813,0v3.193h-3.191a.4.4,0,0,0-.4.4v0a.407.407,0,0,0,.4.411h3.2v3.193a.406.406,0,1,0,.813,0Z" transform="translate(-292.431 -384.493)" fill="#fff"/>
      <path id="Path_146" data-name="Path 146" d="M296.842,417.529v-3.193h3.193a.406.406,0,0,0,0-.813h-3.193v-3.191a.406.406,0,1,0-.813,0v3.191h-3.191a.406.406,0,0,0,0,.813h3.191v3.193a.406.406,0,1,0,.813,0Z" transform="translate(-292.431 -379.677)" fill="#fff"/>
      <path id="Path_147" data-name="Path 147" d="M296.843,427.833v-3.191h3.193a.406.406,0,0,0,0-.813h-3.193v-3.187a.406.406,0,0,0-.813,0v3.184h-3.191a.406.406,0,1,0,0,.813h3.191v3.192a.406.406,0,0,0,.813,0Z" transform="translate(-292.432 -374.859)" fill="#fff"/>
      <path id="Path_148" data-name="Path 148" d="M296.835,438.143v-3.189h3.193a.408.408,0,0,0,0-.814h-3.193v-3.193a.406.406,0,1,0-.813,0v3.193h-3.191a.408.408,0,0,0,0,.814h3.191v3.189a.406.406,0,0,0,.813,0Z" transform="translate(-292.424 -370.042)" fill="#fff"/>
      <path id="Path_149" data-name="Path 149" d="M296.842,448.452v-3.193h3.193a.4.4,0,1,0,0-.81h-3.193v-3.193a.406.406,0,0,0-.813,0v3.194h-3.191a.4.4,0,1,0,0,.81h3.191v3.193a.406.406,0,0,0,.813,0Z" transform="translate(-292.432 -365.224)" fill="#fff"/>
      <path id="Path_150" data-name="Path 150" d="M296.843,458.758v-3.188h3.193a.406.406,0,0,0,0-.813h-3.193v-3.19a.406.406,0,0,0-.813,0v3.19h-3.191a.406.406,0,0,0,0,.813h3.191v3.193a.406.406,0,1,0,.813,0Z" transform="translate(-292.432 -360.406)" fill="#fff"/>
      <path id="Path_151" data-name="Path 151" d="M296.843,469.067v-3.194h3.193a.406.406,0,1,0,0-.813h-3.193v-3.189a.406.406,0,0,0-.813,0v3.189h-3.191a.406.406,0,1,0,0,.813h3.191v3.194a.406.406,0,1,0,.813,0Z" transform="translate(-292.432 -355.59)" fill="#fff"/>
      <path id="Path_152" data-name="Path 152" d="M296.842,479.372v-3.188h3.193a.409.409,0,0,0,0-.819h-3.193v-3.189a.406.406,0,0,0-.813,0v3.189h-3.191a.409.409,0,0,0,0,.819h3.191v3.188a.406.406,0,1,0,.813,0Z" transform="translate(-292.432 -350.774)" fill="#fff"/>
      <path id="Path_153" data-name="Path 153" d="M296.842,489.681v-3.193h3.193a.4.4,0,1,0,0-.808h-3.193v-3.194a.406.406,0,0,0-.813,0v3.194h-3.191a.4.4,0,0,0,0,.808h3.191v3.193a.406.406,0,0,0,.813,0Z" transform="translate(-292.431 -345.956)" fill="#fff"/>
      <path id="Path_154" data-name="Path 154" d="M296.843,499.99V496.8h3.193a.406.406,0,0,0,0-.813h-3.193v-3.189a.406.406,0,1,0-.813,0v3.189h-3.191a.406.406,0,1,0,0,.813h3.191v3.194a.406.406,0,0,0,.813,0Z" transform="translate(-292.432 -341.138)" fill="#fff"/>
      <path id="Path_155" data-name="Path 155" d="M296.842,510.29V507.1h3.193a.4.4,0,1,0,0-.81h-3.193V503.1a.406.406,0,0,0-.813,0v3.193h-3.191a.4.4,0,1,0,0,.81h3.191v3.187a.406.406,0,1,0,.813,0Z" transform="translate(-292.432 -336.322)" fill="#fff"/>
      <path id="Path_156" data-name="Path 156" d="M296.835,520.6v-3.193h3.193a.408.408,0,0,0,0-.814h-3.193v-3.189a.406.406,0,0,0-.813,0V516.6h-3.191a.408.408,0,0,0,0,.814h3.191V520.6a.406.406,0,1,0,.813,0Z" transform="translate(-292.424 -331.505)" fill="#fff"/>
    </g>
    <g id="Group_57" data-name="Group 57" transform="translate(319.971 389.321)">
      <path id="Path_157" data-name="Path 157" d="M306.449,396.914v-3.192h3.193a.406.406,0,0,0,0-.813h-3.193v-3.193a.4.4,0,0,0-.81,0v3.193h-3.193a.406.406,0,1,0-.006.813h3.2v3.192a.4.4,0,0,0,.81,0Z" transform="translate(-302.014 -389.312)" fill="#fff"/>
      <path id="Path_158" data-name="Path 158" d="M306.449,407.223V404.03h3.193a.405.405,0,0,0,.4-.409h0a.4.4,0,0,0-.4-.4h-3.193v-3.193a.4.4,0,1,0-.81,0v3.193h-3.193a.4.4,0,0,0-.408.4h0a.411.411,0,0,0,.408.411h3.193v3.193a.4.4,0,0,0,.81,0Z" transform="translate(-302.014 -384.494)" fill="#fff"/>
      <path id="Path_159" data-name="Path 159" d="M306.449,417.528v-3.193h3.193a.406.406,0,0,0,0-.813h-3.193v-3.191a.4.4,0,1,0-.81,0v3.191h-3.193a.406.406,0,1,0-.006.813h3.2v3.193a.4.4,0,0,0,.81,0Z" transform="translate(-302.014 -379.678)" fill="#fff"/>
      <path id="Path_160" data-name="Path 160" d="M306.448,427.832v-3.191h3.193a.406.406,0,0,0,0-.813h-3.193v-3.187a.4.4,0,0,0-.81,0v3.184h-3.193a.406.406,0,1,0,0,.813h3.193v3.192a.4.4,0,0,0,.81,0Z" transform="translate(-302.013 -374.86)" fill="#fff"/>
      <path id="Path_161" data-name="Path 161" d="M306.457,438.143v-3.188h3.193a.408.408,0,0,0,0-.814h-3.193v-3.193a.4.4,0,0,0-.81,0v3.193h-3.193a.408.408,0,1,0-.048.814h3.241v3.188a.4.4,0,1,0,.81,0Z" transform="translate(-302.022 -370.043)" fill="#fff"/>
      <path id="Path_162" data-name="Path 162" d="M306.448,448.452v-3.193h3.193a.4.4,0,1,0,0-.81h-3.193v-3.193a.4.4,0,1,0-.81,0v3.194h-3.193a.4.4,0,0,0,0,.81h3.193v3.193a.4.4,0,0,0,.81,0Z" transform="translate(-302.013 -365.225)" fill="#fff"/>
      <path id="Path_163" data-name="Path 163" d="M306.448,458.757v-3.188h3.193a.406.406,0,0,0,0-.813h-3.193v-3.19a.4.4,0,0,0-.81,0v3.19h-3.193a.406.406,0,1,0,0,.813h3.193v3.193a.4.4,0,0,0,.81,0Z" transform="translate(-302.013 -360.407)" fill="#fff"/>
      <path id="Path_164" data-name="Path 164" d="M306.448,469.067v-3.194h3.193a.406.406,0,0,0,0-.813h-3.193v-3.189a.4.4,0,0,0-.81,0v3.189h-3.193a.406.406,0,1,0,0,.813h3.193v3.194a.4.4,0,0,0,.81,0Z" transform="translate(-302.013 -355.591)" fill="#fff"/>
      <path id="Path_165" data-name="Path 165" d="M306.448,479.372v-3.188h3.193a.409.409,0,0,0,0-.819h-3.193v-3.189a.4.4,0,0,0-.81,0v3.189h-3.193a.409.409,0,0,0,0,.819h3.193v3.188a.4.4,0,0,0,.81,0Z" transform="translate(-302.013 -350.775)" fill="#fff"/>
      <path id="Path_166" data-name="Path 166" d="M306.448,489.681v-3.193h3.193a.4.4,0,1,0,0-.808h-3.193v-3.195a.4.4,0,0,0-.81,0h0v3.195h-3.193a.4.4,0,0,0,0,.808h3.193v3.193a.4.4,0,0,0,.81,0Z" transform="translate(-302.012 -345.957)" fill="#fff"/>
      <path id="Path_167" data-name="Path 167" d="M306.448,499.99V496.8h3.193a.406.406,0,0,0,0-.813h-3.193v-3.189a.4.4,0,1,0-.81,0v3.189h-3.193a.406.406,0,1,0,0,.813h3.193v3.194a.4.4,0,0,0,.81,0Z" transform="translate(-302.013 -341.139)" fill="#fff"/>
      <path id="Path_168" data-name="Path 168" d="M306.448,510.29V507.1h3.193a.4.4,0,0,0,0-.81h-3.193V503.1a.4.4,0,0,0-.81,0h0v3.193h-3.193a.4.4,0,1,0,0,.81h3.193v3.187a.4.4,0,0,0,.81,0Z" transform="translate(-302.013 -336.323)" fill="#fff"/>
      <path id="Path_169" data-name="Path 169" d="M306.457,520.6v-3.193h3.193a.408.408,0,0,0,0-.814h-3.193v-3.189a.4.4,0,0,0-.81,0V516.6h-3.193a.408.408,0,1,0-.048.814h3.241V520.6a.4.4,0,0,0,.81,0Z" transform="translate(-302.022 -331.506)" fill="#fff"/>
    </g>
    <g id="Group_58" data-name="Group 58" transform="translate(334.092 389.315)">
      <path id="Path_170" data-name="Path 170" d="M316.051,396.916v-3.191h3.193a.406.406,0,0,0,.006-.813h-3.2v-3.193a.405.405,0,0,0-.4-.411h0a.41.41,0,0,0-.408.411h0v3.193h-3.184a.406.406,0,1,0-.006.813h3.194v3.191a.411.411,0,0,0,.408.405A.4.4,0,0,0,316.051,396.916Z" transform="translate(-311.645 -389.308)" fill="#fff"/>
      <path id="Path_171" data-name="Path 171" d="M316.051,407.224v-3.193h3.193a.409.409,0,0,0,.408-.411h0a.4.4,0,0,0-.406-.4h-3.193v-3.193a.4.4,0,0,0-.4-.408h0a.409.409,0,0,0-.408.408v3.193h-3.184a.4.4,0,0,0-.406.4v0a.407.407,0,0,0,.4.411h3.193v3.193a.411.411,0,0,0,.408.405A.4.4,0,0,0,316.051,407.224Z" transform="translate(-311.644 -384.489)" fill="#fff"/>
      <path id="Path_172" data-name="Path 172" d="M316.051,417.528v-3.193h3.193a.406.406,0,0,0,.006-.813h-3.2v-3.191a.4.4,0,0,0-.406-.4.409.409,0,0,0-.408.4v3.191h-3.184a.406.406,0,0,0-.006.813h3.194v3.193a.407.407,0,0,0,.406.4h0a.4.4,0,0,0,.4-.4Z" transform="translate(-311.645 -379.672)" fill="#fff"/>
      <path id="Path_173" data-name="Path 173" d="M316.051,427.833v-3.191h3.193a.406.406,0,0,0,0-.813h-3.191v-3.187a.4.4,0,0,0-.4-.406h-.009a.406.406,0,0,0-.408.4h0v3.184h-3.184a.406.406,0,1,0,0,.813h3.188v3.192a.411.411,0,0,0,.408.408A.4.4,0,0,0,316.051,427.833Z" transform="translate(-311.644 -374.854)" fill="#fff"/>
      <path id="Path_174" data-name="Path 174" d="M316.043,438.143v-3.188h3.193a.408.408,0,1,0,.05-.814.283.283,0,0,0-.05,0h-3.191v-3.193a.4.4,0,0,0-.4-.4h0a.409.409,0,0,0-.408.4v3.193h-3.184a.408.408,0,0,0,0,.814h3.189v3.188a.409.409,0,0,0,.408.4.4.4,0,0,0,.4-.4Z" transform="translate(-311.636 -370.037)" fill="#fff"/>
      <path id="Path_175" data-name="Path 175" d="M316.05,448.453V445.26h3.193a.4.4,0,0,0,0-.81h-3.192v-3.193a.4.4,0,0,0-.4-.408h0a.409.409,0,0,0-.408.408v3.194h-3.184a.4.4,0,1,0,0,.81h3.189v3.193a.411.411,0,0,0,.408.4A.4.4,0,0,0,316.05,448.453Z" transform="translate(-311.644 -365.221)" fill="#fff"/>
      <path id="Path_176" data-name="Path 176" d="M316.051,458.758V455.57h3.193a.406.406,0,0,0,0-.813h-3.191v-3.19a.4.4,0,0,0-.4-.408h0a.409.409,0,0,0-.408.408v3.19h-3.184a.406.406,0,0,0,0,.813h3.188v3.193a.412.412,0,0,0,.408.406.4.4,0,0,0,.4-.409Z" transform="translate(-311.644 -360.402)" fill="#fff"/>
      <path id="Path_177" data-name="Path 177" d="M316.051,469.069v-3.194h3.193a.406.406,0,1,0,0-.813h-3.191v-3.189a.405.405,0,0,0-.4-.411h0a.41.41,0,0,0-.408.411h0v3.189h-3.184a.406.406,0,1,0,0,.813h3.188v3.194a.407.407,0,0,0,.408.4h0a.4.4,0,0,0,.4-.4Z" transform="translate(-311.644 -355.587)" fill="#fff"/>
      <path id="Path_178" data-name="Path 178" d="M316.05,479.371v-3.188h3.193a.409.409,0,0,0,0-.819h-3.192v-3.189a.4.4,0,0,0-.4-.4h-.006a.406.406,0,0,0-.408.4v3.189h-3.184a.409.409,0,0,0,0,.819h3.189v3.188a.411.411,0,0,0,.408.408A.4.4,0,0,0,316.05,479.371Z" transform="translate(-311.644 -350.768)" fill="#fff"/>
      <path id="Path_179" data-name="Path 179" d="M316.05,489.681v-3.193h3.193a.4.4,0,1,0,0-.808h-3.192v-3.195a.4.4,0,0,0-.4-.4h0a.409.409,0,0,0-.408.4v3.195h-3.184a.4.4,0,0,0,0,.808h3.189v3.193a.409.409,0,0,0,.408.4A.4.4,0,0,0,316.05,489.681Z" transform="translate(-311.643 -345.951)" fill="#fff"/>
      <path id="Path_180" data-name="Path 180" d="M316.051,499.992V496.8h3.193a.406.406,0,1,0,0-.813h-3.191V492.8a.4.4,0,0,0-.4-.411h-.009a.409.409,0,0,0-.408.411h0v3.189h-3.184a.406.406,0,1,0,0,.813h3.188v3.194a.411.411,0,0,0,.408.4A.4.4,0,0,0,316.051,499.992Z" transform="translate(-311.644 -341.135)" fill="#fff"/>
      <path id="Path_181" data-name="Path 181" d="M316.05,510.29V507.1h3.193a.4.4,0,0,0,0-.81h-3.192V503.1a.4.4,0,0,0-.4-.4h-.01a.4.4,0,0,0-.408.4h0v3.193h-3.184a.4.4,0,0,0,0,.81h3.189v3.187a.409.409,0,0,0,.408.4A.4.4,0,0,0,316.05,510.29Z" transform="translate(-311.644 -336.317)" fill="#fff"/>
      <path id="Path_182" data-name="Path 182" d="M316.043,520.6v-3.193h3.193a.408.408,0,1,0,.05-.814.283.283,0,0,0-.05,0h-3.191v-3.189a.4.4,0,0,0-.4-.408h0a.409.409,0,0,0-.408.408V516.6h-3.184a.408.408,0,0,0,0,.814h3.189V520.6a.409.409,0,0,0,.408.4.4.4,0,0,0,.4-.4Z" transform="translate(-311.636 -331.501)" fill="#fff"/>
    </g>
    <g id="Group_59" data-name="Group 59" transform="translate(348.18 389.293)">
      <path id="Path_183" data-name="Path 183" d="M325.657,396.923v-3.191h3.192a.406.406,0,0,0,.006-.813h-3.2v-3.193a.408.408,0,1,0-.814-.05v3.243h-3.191a.406.406,0,0,0,0,.813h3.191v3.191a.408.408,0,0,0,.814,0Z" transform="translate(-321.245 -389.293)" fill="#fff"/>
      <path id="Path_184" data-name="Path 184" d="M325.657,407.232V404.04h3.192a.408.408,0,0,0,.406-.409h0a.4.4,0,0,0-.406-.4h-3.192v-3.193a.408.408,0,1,0-.814-.05v3.243h-3.191a.4.4,0,0,0-.4.4h0a.408.408,0,0,0,.4.411h3.193v3.193a.408.408,0,0,0,.814,0Z" transform="translate(-321.245 -384.475)" fill="#fff"/>
      <path id="Path_185" data-name="Path 185" d="M325.657,417.522v-3.193h3.192a.406.406,0,0,0,0-.813h-3.192v-3.191a.408.408,0,0,0-.814,0v3.191h-3.191a.406.406,0,0,0,0,.813h3.191v3.193a.408.408,0,0,0,.814,0Z" transform="translate(-321.245 -379.643)" fill="#fff"/>
      <path id="Path_186" data-name="Path 186" d="M325.658,427.826v-3.191h3.191a.406.406,0,0,0,0-.813h-3.191v-3.187a.408.408,0,0,0-.814,0v3.184h-3.191a.406.406,0,1,0,0,.813h3.191v3.192a.408.408,0,0,0,.814.048.267.267,0,0,0,0-.048Z" transform="translate(-321.246 -374.824)" fill="#fff"/>
      <path id="Path_187" data-name="Path 187" d="M325.651,438.136v-3.188h3.192a.408.408,0,0,0,0-.814h-3.192V430.94a.408.408,0,0,0-.814,0v3.193h-3.191a.408.408,0,0,0,0,.814h3.191v3.188a.408.408,0,0,0,.814,0Z" transform="translate(-321.238 -370.008)" fill="#fff"/>
      <path id="Path_188" data-name="Path 188" d="M325.658,448.461v-3.193h3.192a.4.4,0,1,0,0-.81h-3.192v-3.193a.408.408,0,1,0-.814-.05v3.244h-3.191a.4.4,0,0,0,0,.81h3.191v3.193a.408.408,0,0,0,.814,0Z" transform="translate(-321.246 -365.206)" fill="#fff"/>
      <path id="Path_189" data-name="Path 189" d="M325.658,458.767v-3.189h3.191a.406.406,0,0,0,0-.813h-3.191v-3.19a.408.408,0,1,0-.814-.05v3.24h-3.191a.406.406,0,0,0,0,.813h3.191v3.193a.408.408,0,0,0,.814,0Z" transform="translate(-321.246 -360.388)" fill="#fff"/>
      <path id="Path_190" data-name="Path 190" d="M325.658,469.076v-3.194h3.191a.406.406,0,1,0,0-.813h-3.191V461.88a.408.408,0,1,0-.814-.05v3.238h-3.191a.406.406,0,1,0,0,.813h3.191v3.194a.408.408,0,0,0,.814,0Z" transform="translate(-321.246 -355.572)" fill="#fff"/>
      <path id="Path_191" data-name="Path 191" d="M325.658,479.365v-3.188h3.192a.409.409,0,0,0,0-.819h-3.192v-3.189a.408.408,0,0,0-.814,0v3.189h-3.192a.409.409,0,0,0,0,.819h3.192v3.188a.408.408,0,1,0,.814.049A.263.263,0,0,0,325.658,479.365Z" transform="translate(-321.246 -350.74)" fill="#fff"/>
      <path id="Path_192" data-name="Path 192" d="M325.657,489.674v-3.193h3.192a.4.4,0,1,0,0-.808h-3.192v-3.195a.408.408,0,0,0-.814,0v3.195h-3.191a.4.4,0,0,0,0,.808h3.191v3.193a.408.408,0,0,0,.814,0Z" transform="translate(-321.245 -345.922)" fill="#fff"/>
      <path id="Path_193" data-name="Path 193" d="M325.658,500V496.8h3.191a.406.406,0,0,0,0-.813h-3.191V492.8a.408.408,0,1,0-.814-.05v3.238h-3.191a.406.406,0,1,0,0,.813h3.191V500a.408.408,0,0,0,.814,0Z" transform="translate(-321.246 -341.12)" fill="#fff"/>
      <path id="Path_194" data-name="Path 194" d="M325.658,510.283V507.09h3.192a.4.4,0,1,0,0-.81h-3.192v-3.187a.408.408,0,0,0-.814,0v3.193h-3.191a.4.4,0,0,0,0,.81h3.191v3.187a.408.408,0,0,0,.814,0Z" transform="translate(-321.246 -336.288)" fill="#fff"/>
      <path id="Path_195" data-name="Path 195" d="M325.651,520.613V517.42h3.192a.408.408,0,0,0,0-.814h-3.192v-3.189a.408.408,0,1,0-.814-.05v3.239h-3.191a.408.408,0,0,0,0,.814h3.191v3.193a.408.408,0,0,0,.814,0Z" transform="translate(-321.238 -331.486)" fill="#fff"/>
    </g>
    <g id="Group_60" data-name="Group 60" transform="translate(362.269 389.32)">
      <path id="Path_196" data-name="Path 196" d="M335.262,396.915v-3.192h3.193a.406.406,0,1,0,.006-.813h-3.2v-3.193a.406.406,0,1,0-.813,0v3.193h-3.191a.406.406,0,0,0-.006.813h3.2v3.192a.406.406,0,0,0,.813,0Z" transform="translate(-330.848 -389.311)" fill="#fff"/>
      <path id="Path_197" data-name="Path 197" d="M335.261,407.224v-3.193h3.193a.408.408,0,0,0,.406-.409h0a.4.4,0,0,0-.406-.4h-3.193v-3.193a.406.406,0,1,0-.813,0v3.193h-3.191a.4.4,0,0,0-.406.4v0a.407.407,0,0,0,.4.411h3.2v3.193a.406.406,0,1,0,.813,0Z" transform="translate(-330.847 -384.493)" fill="#fff"/>
      <path id="Path_198" data-name="Path 198" d="M335.26,417.529v-3.193h3.193a.406.406,0,0,0,.006-.813h-3.2v-3.191a.406.406,0,1,0-.813,0v3.191h-3.191a.406.406,0,0,0,0,.813h3.191v3.193a.406.406,0,1,0,.813,0Z" transform="translate(-330.846 -379.677)" fill="#fff"/>
      <path id="Path_199" data-name="Path 199" d="M335.261,427.833v-3.191h3.193a.406.406,0,0,0,0-.813h-3.193v-3.187a.406.406,0,0,0-.813,0v3.184h-3.191a.406.406,0,1,0,0,.813h3.191v3.192a.406.406,0,0,0,.813,0Z" transform="translate(-330.847 -374.859)" fill="#fff"/>
      <path id="Path_200" data-name="Path 200" d="M335.253,438.143v-3.189h3.193a.408.408,0,0,0,0-.814h-3.193v-3.193a.406.406,0,1,0-.813,0v3.193h-3.191a.408.408,0,0,0,0,.814h3.191v3.189a.406.406,0,0,0,.813,0Z" transform="translate(-330.839 -370.042)" fill="#fff"/>
      <path id="Path_201" data-name="Path 201" d="M335.26,448.452v-3.193h3.193a.4.4,0,1,0,0-.81H335.26v-3.193a.406.406,0,0,0-.813,0v3.194h-3.191a.4.4,0,0,0,0,.81h3.191v3.193a.406.406,0,0,0,.813,0Z" transform="translate(-330.847 -365.224)" fill="#fff"/>
      <path id="Path_202" data-name="Path 202" d="M335.261,458.758v-3.188h3.193a.406.406,0,0,0,0-.813h-3.193v-3.19a.406.406,0,0,0-.813,0v3.19h-3.191a.406.406,0,0,0,0,.813h3.191v3.193a.406.406,0,1,0,.813,0Z" transform="translate(-330.847 -360.406)" fill="#fff"/>
      <path id="Path_203" data-name="Path 203" d="M335.261,469.067v-3.194h3.193a.406.406,0,0,0,0-.813h-3.193v-3.189a.406.406,0,0,0-.813,0v3.189h-3.191a.406.406,0,1,0,0,.813h3.191v3.194a.406.406,0,1,0,.813,0Z" transform="translate(-330.847 -355.59)" fill="#fff"/>
      <path id="Path_204" data-name="Path 204" d="M335.26,479.372v-3.188h3.193a.409.409,0,0,0,0-.819H335.26v-3.189a.406.406,0,1,0-.813,0v3.189h-3.191a.409.409,0,0,0,0,.819h3.191v3.188a.406.406,0,1,0,.813,0Z" transform="translate(-330.847 -350.774)" fill="#fff"/>
      <path id="Path_205" data-name="Path 205" d="M335.26,489.681v-3.193h3.193a.4.4,0,1,0,0-.808H335.26v-3.194a.406.406,0,0,0-.813,0v3.194h-3.191a.4.4,0,0,0,0,.808h3.191v3.193a.406.406,0,0,0,.813,0Z" transform="translate(-330.846 -345.956)" fill="#fff"/>
      <path id="Path_206" data-name="Path 206" d="M335.261,499.99V496.8h3.193a.406.406,0,0,0,0-.813h-3.193v-3.189a.406.406,0,1,0-.813,0v3.189h-3.191a.406.406,0,0,0,0,.813h3.191v3.194a.406.406,0,0,0,.813,0Z" transform="translate(-330.847 -341.138)" fill="#fff"/>
      <path id="Path_207" data-name="Path 207" d="M335.26,510.29V507.1h3.193a.4.4,0,1,0,0-.81H335.26V503.1a.406.406,0,0,0-.813,0v3.193h-3.191a.4.4,0,0,0,0,.81h3.191v3.187a.406.406,0,1,0,.813,0Z" transform="translate(-330.847 -336.322)" fill="#fff"/>
      <path id="Path_208" data-name="Path 208" d="M335.253,520.6v-3.193h3.193a.408.408,0,0,0,0-.814h-3.193v-3.189a.406.406,0,0,0-.813,0V516.6h-3.191a.408.408,0,0,0,0,.814h3.191V520.6a.406.406,0,1,0,.813,0Z" transform="translate(-330.839 -331.505)" fill="#fff"/>
    </g>
    <g id="Group_61" data-name="Group 61" transform="translate(376.345 389.317)">
      <path id="Path_209" data-name="Path 209" d="M344.87,396.916v-3.191h3.189a.406.406,0,1,0,.006-.813H344.87v-3.193a.408.408,0,1,0-.816,0h0v3.193h-3.189a.406.406,0,0,0-.006.813h3.194v3.191a.408.408,0,0,0,.816,0Z" transform="translate(-340.433 -389.309)" fill="#fff"/>
      <path id="Path_210" data-name="Path 210" d="M344.869,407.225v-3.193h3.189a.406.406,0,0,0,.406-.406v0a.4.4,0,0,0-.4-.4h-3.191v-3.193a.408.408,0,1,0-.816,0h0v3.193h-3.189a.4.4,0,0,0-.408.4h0a.41.41,0,0,0,.408.411h3.189v3.193a.408.408,0,0,0,.816,0Z" transform="translate(-340.433 -384.491)" fill="#fff"/>
      <path id="Path_211" data-name="Path 211" d="M344.87,417.529v-3.193h3.189a.406.406,0,1,0,.006-.813H344.87v-3.192a.408.408,0,0,0-.816,0v3.192h-3.189a.406.406,0,0,0-.006.813h3.194v3.193a.408.408,0,0,0,.816,0Z" transform="translate(-340.433 -379.675)" fill="#fff"/>
      <path id="Path_212" data-name="Path 212" d="M344.869,427.833v-3.191h3.189a.406.406,0,1,0,0-.813h-3.189v-3.187a.408.408,0,0,0-.816,0v3.184h-3.189a.406.406,0,0,0,0,.813h3.189v3.191a.408.408,0,0,0,.816,0Z" transform="translate(-340.432 -374.856)" fill="#fff"/>
      <path id="Path_213" data-name="Path 213" d="M344.877,438.144v-3.189h3.189a.408.408,0,0,0,0-.814h-3.189v-3.193a.408.408,0,1,0-.816,0v3.193h-3.189a.408.408,0,1,0-.048.814h3.237v3.189a.408.408,0,0,0,.816,0Z" transform="translate(-340.441 -370.04)" fill="#fff"/>
      <path id="Path_214" data-name="Path 214" d="M344.868,448.453V445.26h3.189a.4.4,0,1,0,0-.81h-3.189v-3.193a.408.408,0,1,0-.816,0v3.194h-3.189a.4.4,0,0,0,0,.81h3.189v3.193a.408.408,0,0,0,.816,0Z" transform="translate(-340.432 -365.222)" fill="#fff"/>
      <path id="Path_215" data-name="Path 215" d="M344.869,458.759V455.57h3.189a.406.406,0,0,0,0-.813h-3.189v-3.19a.408.408,0,1,0-.816,0v3.191h-3.189a.406.406,0,0,0,0,.813h3.189v3.193a.408.408,0,0,0,.816,0Z" transform="translate(-340.432 -360.404)" fill="#fff"/>
      <path id="Path_216" data-name="Path 216" d="M344.869,469.068v-3.194h3.189a.406.406,0,1,0,0-.813h-3.189v-3.189a.408.408,0,1,0-.816,0v3.19h-3.189a.406.406,0,0,0,0,.813h3.189v3.194a.408.408,0,0,0,.816,0Z" transform="translate(-340.432 -355.588)" fill="#fff"/>
      <path id="Path_217" data-name="Path 217" d="M344.868,479.373v-3.188h3.189a.409.409,0,0,0,0-.819h-3.189v-3.189a.408.408,0,1,0-.816,0v3.189h-3.189a.409.409,0,0,0,0,.819h3.189v3.188a.408.408,0,0,0,.816,0Z" transform="translate(-340.432 -350.772)" fill="#fff"/>
      <path id="Path_218" data-name="Path 218" d="M344.868,489.682v-3.193h3.189a.4.4,0,1,0,0-.808h-3.189v-3.194a.408.408,0,0,0-.816,0v3.194h-3.189a.4.4,0,0,0,0,.808h3.189v3.193a.408.408,0,0,0,.816,0Z" transform="translate(-340.431 -345.954)" fill="#fff"/>
      <path id="Path_219" data-name="Path 219" d="M344.869,499.991V496.8h3.189a.406.406,0,1,0,0-.813h-3.189V492.8a.408.408,0,1,0-.816,0h0v3.189h-3.189a.406.406,0,0,0,0,.813h3.189v3.194a.408.408,0,0,0,.816,0Z" transform="translate(-340.432 -341.136)" fill="#fff"/>
      <path id="Path_220" data-name="Path 220" d="M344.868,510.291V507.1h3.189a.4.4,0,1,0,0-.81h-3.189V503.1a.408.408,0,0,0-.816,0v3.193h-3.189a.4.4,0,0,0,0,.81h3.189v3.187a.408.408,0,0,0,.816,0Z" transform="translate(-340.432 -336.319)" fill="#fff"/>
      <path id="Path_221" data-name="Path 221" d="M344.877,520.6v-3.193h3.189a.408.408,0,0,0,0-.814h-3.189v-3.189a.408.408,0,1,0-.816,0V516.6h-3.189a.408.408,0,1,0-.048.814h3.237V520.6a.408.408,0,0,0,.816,0Z" transform="translate(-340.441 -331.502)" fill="#fff"/>
    </g>
  </g>
</svg>
