<svg id="eea8a3bb-daad-4ee7-9e91-dbaae6c84046" data-name="Layer 1" xmlns="http://www.w3.org/2000/svg" viewBox="0 0 37.62 37.62"><defs><style>.b326c6f6-81a8-404f-a0a2-fa04cb04bafb{fill:#fece66;}.be4f4d49-bbdd-4fd1-824d-b4908d8fa409{fill:#f5b540;}.b0ba1738-2b85-4853-84be-78ebfd64d49e{fill:#343b43;}.b2889de8-e397-45d7-b4d2-f595acf6fce5{fill:#fff;}.a6ff8cef-a6a0-4210-9a63-71f002e41ae5{fill:#ea6552;}.eea9959c-674f-4960-ab2c-d3e069dccba9{fill:#e6e5e5;}</style></defs><circle class="b326c6f6-81a8-404f-a0a2-fa04cb04bafb" cx="18.81" cy="18.81" r="18.81" transform="translate(-7.79 18.81) rotate(-45)"/><path class="be4f4d49-bbdd-4fd1-824d-b4908d8fa409" d="M18.88,7.44l0,0-.05,0a.07.07,0,0,0-.07.06l-.39,2h0a2.37,2.37,0,0,0-.41.17l-.14.09-.29.23-.09.08-.09.09-.08.09a2.48,2.48,0,0,0-.25.3.76.76,0,0,1-.08.11l-.15.23-.08.12-.15.26a.91.91,0,0,0-.07.14l-.14.28c-.08.15-.14.3-.21.46l-.05.12L13.16,9.27l0,0a.34.34,0,0,0-.24-.09.36.36,0,0,0-.36.35.41.41,0,0,0,.07.22l3.2,3.19A17.67,17.67,0,0,0,15.14,16l-2.28-2.28-.46.46-.31-.3L9,10.74l0,0-.05-.05,0,0a.69.69,0,0,0-.46-.17.73.73,0,0,0-.73.73.78.78,0,0,0,.15.44l.14.14,7,7V19c0,.53,0,1.05.05,1.55A6.47,6.47,0,0,0,13.16,24L10.78,21.6l0,0a.24.24,0,0,0-.16-.07.25.25,0,0,0-.21.37l2.68,2.68a6.53,6.53,0,0,0-.05.78,6.82,6.82,0,0,0,1.22,3.91h0l8,8A18.84,18.84,0,0,0,36.54,25.1Z"/><path class="be4f4d49-bbdd-4fd1-824d-b4908d8fa409" d="M26.87,8.83l-.1-.1a.59.59,0,0,0-.37-.13.61.61,0,0,0-.61.61.6.6,0,0,0,.17.43h0l1.55,1.55.1.1-.05,0,9.89,9.89c.07-.54.12-1.1.14-1.66Z"/><path class="b0ba1738-2b85-4853-84be-78ebfd64d49e" d="M14.86,28.14a2.3,2.3,0,0,1,1.64-.67h4.62a2.3,2.3,0,0,1,1.64.67,2.23,2.23,0,0,1,.61,1.11,6.73,6.73,0,0,0,1.23-3.91A6.1,6.1,0,0,0,18.81,19C15.62,19,13,21.82,13,25.34a6.73,6.73,0,0,0,1.23,3.91A2.23,2.23,0,0,1,14.86,28.14Z"/><path class="b2889de8-e397-45d7-b4d2-f595acf6fce5" d="M22.68,19c0,5.34-1.74,9.66-3.87,9.66S15,24.34,15,19s1.73-9.66,3.86-9.66S22.68,13.66,22.68,19Z"/><path class="b0ba1738-2b85-4853-84be-78ebfd64d49e" d="M17,27.47a2.4,2.4,0,0,0,1.86,1.19,2.4,2.4,0,0,0,1.86-1.19Z"/><path class="b0ba1738-2b85-4853-84be-78ebfd64d49e" d="M18.81,29.25a19,19,0,0,0,.36-3.64A18.88,18.88,0,0,0,18.81,22a18.58,18.58,0,0,0,0,7.28Z"/><path class="a6ff8cef-a6a0-4210-9a63-71f002e41ae5" d="M16.12,12.06H21.5c-.7-1.68-1.64-2.72-2.69-2.72S16.82,10.38,16.12,12.06Z"/><path class="b0ba1738-2b85-4853-84be-78ebfd64d49e" d="M20.51,15.84a1.7,1.7,0,1,1-1.7-1.7A1.7,1.7,0,0,1,20.51,15.84Z"/><path class="eea9959c-674f-4960-ab2c-d3e069dccba9" d="M19.89,15.84a1.08,1.08,0,1,1-1.08-1.09A1.08,1.08,0,0,1,19.89,15.84Z"/><path class="b0ba1738-2b85-4853-84be-78ebfd64d49e" d="M18.89,7.46a.08.08,0,0,0-.16,0l-.38,2h.92Z"/><path class="b2889de8-e397-45d7-b4d2-f595acf6fce5" d="M27,9.21a.61.61,0,1,1-.6-.61A.6.6,0,0,1,27,9.21Z"/><path class="b2889de8-e397-45d7-b4d2-f595acf6fce5" d="M9.15,11.2a.73.73,0,1,1-.73-.73A.73.73,0,0,1,9.15,11.2Z"/><path class="b2889de8-e397-45d7-b4d2-f595acf6fce5" d="M13.25,9.51a.36.36,0,1,1-.35-.35A.36.36,0,0,1,13.25,9.51Z"/><path class="b2889de8-e397-45d7-b4d2-f595acf6fce5" d="M13,14a.48.48,0,0,1-.48.49.49.49,0,0,1-.49-.49.48.48,0,0,1,.49-.48A.47.47,0,0,1,13,14Z"/><path class="b2889de8-e397-45d7-b4d2-f595acf6fce5" d="M10.84,21.76a.24.24,0,0,1-.24.24.24.24,0,0,1-.24-.24.24.24,0,0,1,.24-.25A.25.25,0,0,1,10.84,21.76Z"/><path class="b2889de8-e397-45d7-b4d2-f595acf6fce5" d="M27.88,11.2a.18.18,0,0,1-.18.18.18.18,0,1,1,0-.36A.18.18,0,0,1,27.88,11.2Z"/><path class="b2889de8-e397-45d7-b4d2-f595acf6fce5" d="M27.36,22.11a.36.36,0,1,1-.71,0,.36.36,0,0,1,.71,0Z"/><path class="b2889de8-e397-45d7-b4d2-f595acf6fce5" d="M28.18,26.12a.25.25,0,0,1-.24.25.24.24,0,0,1-.24-.25.24.24,0,0,1,.24-.24A.24.24,0,0,1,28.18,26.12Z"/></svg>