<svg id="a15a4e29-4d6e-4620-80e8-e3fa03d8a4da" data-name="Layer 1" xmlns="http://www.w3.org/2000/svg" viewBox="0 0 37.62 37.62"><defs><style>.aaa03a81-9351-4687-a849-508594157759{fill:#fece66;}.be9e6235-337a-455b-bf16-8273f3140b86{fill:#f5b540;}.f4f996ec-81bb-4e6d-aa14-bc72e8a04e6f{fill:#fff;}.b9ab0039-d58e-4bea-8c9d-c096a2a560e3{fill:#343b43;}.a9d1066f-21bf-44c3-9cc4-08882dcec64a{fill:#e24f3b;}.ad0693e1-6b57-45cb-84b9-0fc3ca197375{fill:#70c9e9;}.ec24c823-37e6-4820-b487-004016fe4e4e{fill:#cccbca;}.fbd99763-4f4a-400c-825d-b02e0d765b19{fill:#495057;}.a12c7bf5-d57d-46e1-b530-1a1d9ead95fb{fill:#1e262e;}.b9cb3e6b-c24b-40bf-bbb7-4134aeff5505{fill:#e6e5e5;}</style></defs><path class="aaa03a81-9351-4687-a849-508594157759" d="M37.62,18.81A18.81,18.81,0,1,1,18.81,0,18.81,18.81,0,0,1,37.62,18.81Z"/><path class="be9e6235-337a-455b-bf16-8273f3140b86" d="M28.91,10.77a.73.73,0,0,0-.51-.21H9.22a.72.72,0,0,0-.72.73V26.34a.73.73,0,0,0,.21.51L19.46,37.61A18.81,18.81,0,0,0,37.6,19.46Z"/><path class="f4f996ec-81bb-4e6d-aa14-bc72e8a04e6f" d="M29.13,26.34a.74.74,0,0,1-.22.51.73.73,0,0,1-.51.21H9.22a.72.72,0,0,1-.72-.72V14.27H29.13Z"/><path class="b9ab0039-d58e-4bea-8c9d-c096a2a560e3" d="M29.13,14.27H8.5v-3a.72.72,0,0,1,.72-.73H28.4a.73.73,0,0,1,.51.21.74.74,0,0,1,.22.52Z"/><path class="a9d1066f-21bf-44c3-9cc4-08882dcec64a" d="M10.92,12.42a.61.61,0,1,1-.6-.61A.6.6,0,0,1,10.92,12.42Z"/><path class="be9e6235-337a-455b-bf16-8273f3140b86" d="M12.74,12.42a.61.61,0,1,1-.6-.61A.6.6,0,0,1,12.74,12.42Z"/><path class="ad0693e1-6b57-45cb-84b9-0fc3ca197375" d="M14.56,12.42a.61.61,0,1,1-.6-.61A.6.6,0,0,1,14.56,12.42Z"/><polygon class="ec24c823-37e6-4820-b487-004016fe4e4e" points="21.16 16.96 20.9 16.96 20.9 16.43 21.43 16.43 21.43 16.96 21.16 16.96"/><path class="ec24c823-37e6-4820-b487-004016fe4e4e" d="M20.3,17h-.59v-.53h.59Zm-1.19,0h-.59v-.53h.59Zm-1.19,0h-.59v-.53h.59Z"/><rect class="ec24c823-37e6-4820-b487-004016fe4e4e" x="16.21" y="16.43" width="0.53" height="0.54"/><path class="ec24c823-37e6-4820-b487-004016fe4e4e" d="M16.73,20.52h-.52v-.6h.52Zm0-1.19h-.52v-.59h.52Zm0-1.18h-.52v-.6h.52Z"/><rect class="ec24c823-37e6-4820-b487-004016fe4e4e" x="16.21" y="21.11" width="0.53" height="0.54"/><rect class="ec24c823-37e6-4820-b487-004016fe4e4e" x="20.9" y="21.11" width="0.53" height="0.54"/><path class="ec24c823-37e6-4820-b487-004016fe4e4e" d="M21.42,20.52H20.9v-.6h.52Zm0-1.19H20.9v-.59h.52Zm0-1.18H20.9v-.6h.52Z"/><rect class="aaa03a81-9351-4687-a849-508594157759" x="10.08" y="16.43" width="5.22" height="5.22"/><rect class="aaa03a81-9351-4687-a849-508594157759" x="22.33" y="16.43" width="5.22" height="5.22"/><rect class="ec24c823-37e6-4820-b487-004016fe4e4e" x="10.07" y="24.09" width="5.22" height="0.82"/><rect class="ec24c823-37e6-4820-b487-004016fe4e4e" x="10.07" y="22.46" width="5.22" height="0.82"/><rect class="ec24c823-37e6-4820-b487-004016fe4e4e" x="22.33" y="24.09" width="5.22" height="0.82"/><rect class="ec24c823-37e6-4820-b487-004016fe4e4e" x="22.33" y="22.46" width="5.22" height="0.82"/><rect class="fbd99763-4f4a-400c-825d-b02e0d765b19" x="17.31" y="21.63" width="1" height="5.43"/><rect class="b9ab0039-d58e-4bea-8c9d-c096a2a560e3" x="18.31" y="21.63" width="1" height="5.43"/><rect class="a12c7bf5-d57d-46e1-b530-1a1d9ead95fb" x="19.31" y="21.63" width="1" height="5.43"/><polygon class="b9cb3e6b-c24b-40bf-bbb7-4134aeff5505" points="20.31 21.63 19.31 19.9 18.31 19.9 17.31 21.63 20.31 21.63"/><polygon class="ec24c823-37e6-4820-b487-004016fe4e4e" points="20.31 21.63 19.31 21.63 18.98 19.9 19.31 19.9 20.31 21.63"/><polygon class="b9ab0039-d58e-4bea-8c9d-c096a2a560e3" points="19.31 19.9 18.81 19.04 18.31 19.9 19.31 19.9"/></svg>