<svg id="bc20ea81-371b-49cb-8e75-4e254f1d2cec" data-name="Layer 1" xmlns="http://www.w3.org/2000/svg" viewBox="0 0 37.62 37.62"><defs><style>.b33878bd-7935-4250-bc76-c676d88e8797{fill:#fece66;}.b453212c-35c9-4775-8c3c-79e782ead260{fill:#f5b540;}.b7efb99f-b911-44bd-842e-45a5baf66fa6{fill:#fff;}.fb951dc1-b3b1-48da-9627-ebf8648b8e4e{fill:#343b43;}</style></defs><circle class="b33878bd-7935-4250-bc76-c676d88e8797" cx="18.81" cy="18.81" r="18.81" transform="translate(-7.79 18.81) rotate(-45)"/><path class="b453212c-35c9-4775-8c3c-79e782ead260" d="M36.76,24.45l-8-8a1.25,1.25,0,0,0-.44-.29h0L23,10.88h0a1.23,1.23,0,0,0-1.75,0,1.21,1.21,0,0,0-.37.88v-.13a4.59,4.59,0,0,1-.36,1.8,4.72,4.72,0,0,1-1,1.52,4,4,0,0,1-1.29.85,3.92,3.92,0,0,1-1.52.3h-.41L16.15,16a.7.7,0,0,0-.51-.22H9.22a.7.7,0,0,0-.51.22.71.71,0,0,0-.21.51v9.19a.71.71,0,0,0,.21.51l11.4,11.4A18.8,18.8,0,0,0,36.76,24.45Z"/><path class="b7efb99f-b911-44bd-842e-45a5baf66fa6" d="M28.76,16.46a1.21,1.21,0,0,0-.88-.37H22v2.49h5.87a1.21,1.21,0,0,0,.88-.37,1.22,1.22,0,0,0,0-1.75Z"/><path class="b7efb99f-b911-44bd-842e-45a5baf66fa6" d="M28.06,18.94a1.24,1.24,0,0,0-.88-.36H20.87v2.49h6.31a1.25,1.25,0,0,0,.88-2.13Z"/><path class="b7efb99f-b911-44bd-842e-45a5baf66fa6" d="M27.37,21.43a1.24,1.24,0,0,0-.88-.36H19.73v2.48h6.76a1.24,1.24,0,0,0,.88-2.12Z"/><path class="b7efb99f-b911-44bd-842e-45a5baf66fa6" d="M26.68,23.92a1.21,1.21,0,0,0-.88-.37H18.6V26h7.2a1.24,1.24,0,0,0,.88-.36A1.26,1.26,0,0,0,27,24.8,1.24,1.24,0,0,0,26.68,23.92Z"/><path class="b7efb99f-b911-44bd-842e-45a5baf66fa6" d="M23,10.87a1.22,1.22,0,0,0-1.75,0,1.21,1.21,0,0,0-.37.88v-.13a4.59,4.59,0,0,1-.36,1.8,4.72,4.72,0,0,1-1,1.52,4,4,0,0,1-1.29.85,3.89,3.89,0,0,1-1.52.3h-.61V26h6V17.17l.57-1.4a9.29,9.29,0,0,0,.68-3.5v-.52A1.21,1.21,0,0,0,23,10.87Z"/><path class="fb951dc1-b3b1-48da-9627-ebf8648b8e4e" d="M8.5,25.66a.75.75,0,0,0,.21.52.73.73,0,0,0,.51.21h6.42a.73.73,0,0,0,.51-.21.75.75,0,0,0,.21-.52V16.47a.73.73,0,0,0-.21-.51.7.7,0,0,0-.51-.22H9.22a.7.7,0,0,0-.51.22.73.73,0,0,0-.21.51Z"/><path class="b7efb99f-b911-44bd-842e-45a5baf66fa6" d="M14.94,24.51a.58.58,0,1,1-.57-.58A.58.58,0,0,1,14.94,24.51Z"/></svg>