<svg id="a55b0679-b8d5-4c7b-aa32-248844656af8" data-name="Layer 1" xmlns="http://www.w3.org/2000/svg" viewBox="0 0 37.62 37.62"><defs><style>.b5d16670-a809-48bb-986c-39d6a74c3d42{fill:#fece66;}.a1e7a7cc-d98d-4c78-89c5-935111ea1fd7{fill:#f5b540;}.e0bc6eec-6661-45c5-88a1-40ebb4a13dc2{fill:#cccbca;}.ae1649ef-bb04-4bac-b330-d914829da07a{fill:#fff;}.e3bff42b-dabe-4ab1-8a92-3451c799bc1a{fill:#343b43;}.e9b5913f-4061-4e8d-b9bc-17f11ec5e3cb{fill:#d9d8d7;}.a7fd5d67-fc0f-421b-ba58-27d8b23fb81f{fill:#ea6552;}.bb6888c4-454c-4079-a3f0-5cb1939892c0{fill:#fd8369;}</style></defs><circle class="b5d16670-a809-48bb-986c-39d6a74c3d42" cx="18.81" cy="18.81" r="18.81" transform="translate(-7.79 18.81) rotate(-45)"/><path class="a1e7a7cc-d98d-4c78-89c5-935111ea1fd7" d="M37.62,18.81h0l-8.7-8.7h0a.78.78,0,0,0-.51-.2H9.22a.72.72,0,0,0-.72.72v15a.73.73,0,0,0,.19.5l0,0h0L20.21,37.56A18.8,18.8,0,0,0,37.62,18.81Z"/><rect class="e0bc6eec-6661-45c5-88a1-40ebb4a13dc2" x="15.78" y="26.28" width="6.07" height="2.67"/><rect class="ae1649ef-bb04-4bac-b330-d914829da07a" x="14.32" y="28.95" width="8.98" height="0.73"/><path class="e3bff42b-dabe-4ab1-8a92-3451c799bc1a" d="M8.5,23.85V10.61a.72.72,0,0,1,.72-.73H28.4a.73.73,0,0,1,.51.21.74.74,0,0,1,.22.52V23.85Z"/><rect class="ae1649ef-bb04-4bac-b330-d914829da07a" x="9.83" y="11.21" width="17.96" height="11.31"/><path class="ae1649ef-bb04-4bac-b330-d914829da07a" d="M29.13,25.55a.76.76,0,0,1-.22.52.73.73,0,0,1-.51.21H9.22a.73.73,0,0,1-.51-.21.75.75,0,0,1-.21-.52v-1.7H29.13Z"/><rect class="b5d16670-a809-48bb-986c-39d6a74c3d42" x="11.63" y="15.73" width="5.39" height="5.39"/><rect class="e3bff42b-dabe-4ab1-8a92-3451c799bc1a" x="18.81" y="15.73" width="3.59" height="0.54"/><rect class="e9b5913f-4061-4e8d-b9bc-17f11ec5e3cb" x="18.81" y="16.8" width="7.19" height="0.54"/><rect class="e9b5913f-4061-4e8d-b9bc-17f11ec5e3cb" x="18.81" y="17.88" width="7.19" height="0.54"/><rect class="e9b5913f-4061-4e8d-b9bc-17f11ec5e3cb" x="18.81" y="18.96" width="7.19" height="0.54"/><rect class="a7fd5d67-fc0f-421b-ba58-27d8b23fb81f" x="20.61" y="20.04" width="3.59" height="1.08"/><path class="bb6888c4-454c-4079-a3f0-5cb1939892c0" d="M9.83,11.21v2.21a.9.9,0,1,0,1.8,0V11.21Z"/><path class="a7fd5d67-fc0f-421b-ba58-27d8b23fb81f" d="M11.63,11.21v2.21a.9.9,0,1,0,1.79,0V11.21Z"/><path class="bb6888c4-454c-4079-a3f0-5cb1939892c0" d="M13.42,11.21v2.21a.9.9,0,1,0,1.8,0V11.21Z"/><path class="a7fd5d67-fc0f-421b-ba58-27d8b23fb81f" d="M15.22,11.21v2.21a.9.9,0,1,0,1.8,0V11.21Z"/><path class="bb6888c4-454c-4079-a3f0-5cb1939892c0" d="M17,11.21v2.21a.9.9,0,1,0,1.79,0V11.21Z"/><path class="a7fd5d67-fc0f-421b-ba58-27d8b23fb81f" d="M18.81,11.21v2.21a.9.9,0,1,0,1.8,0V11.21Z"/><path class="bb6888c4-454c-4079-a3f0-5cb1939892c0" d="M20.61,11.21v2.21a.9.9,0,1,0,1.79,0V11.21Z"/><path class="a7fd5d67-fc0f-421b-ba58-27d8b23fb81f" d="M22.4,11.21v2.21a.9.9,0,1,0,1.8,0V11.21Z"/><path class="a7fd5d67-fc0f-421b-ba58-27d8b23fb81f" d="M26,11.21v2.21a.9.9,0,1,0,1.79,0V11.21Z"/><path class="bb6888c4-454c-4079-a3f0-5cb1939892c0" d="M24.2,11.21v2.21a.9.9,0,1,0,1.8,0V11.21Z"/></svg>