<svg id="e36d0cea-974c-4d38-8634-40445cddb0c7" data-name="Layer 1" xmlns="http://www.w3.org/2000/svg" viewBox="0 0 37.62 37.62"><defs><style>.e52c8cf8-1fa0-4ec8-abc5-7923e947f1b5{fill:#fece66;}.e1ae46c6-4543-4c96-b3aa-4393446e43fd{fill:#f5b540;}.bb70231a-1126-4313-bbae-d804291009fa{fill:#e6e5e5;}.ad33ffd1-0d37-4b7e-a37a-d691f524b5e1{fill:#fff;}.b897528a-4737-4773-8ae3-772d8383d250{fill:#343b43;}.a94a880d-d322-4273-b623-1bc713552bc7{fill:#ea6552;}.fa8ce2d6-7715-47c6-9a67-0e6ba8a9fa2e{fill:#fd8369;}.b4dd2559-5e55-4cdd-8f94-493ed178c12b{fill:#8fdef6;}</style></defs><circle class="e52c8cf8-1fa0-4ec8-abc5-7923e947f1b5" cx="18.81" cy="18.81" r="18.81" transform="translate(-3.82 32.8) rotate(-76.72)"/><path class="e1ae46c6-4543-4c96-b3aa-4393446e43fd" d="M37.61,19.46l-8.7-8.69a.73.73,0,0,0-.51-.21H9.22a.72.72,0,0,0-.72.73v15a.73.73,0,0,0,.21.52L19.46,37.6A18.81,18.81,0,0,0,37.61,19.46Z"/><path class="bb70231a-1126-4313-bbae-d804291009fa" d="M29.13,26.33a.7.7,0,0,1-.22.52.73.73,0,0,1-.51.21H9.22a.72.72,0,0,1-.72-.73V14.27H29.13Z"/><path class="ad33ffd1-0d37-4b7e-a37a-d691f524b5e1" d="M29.13,14.27H8.5v-3a.72.72,0,0,1,.72-.73H28.4a.73.73,0,0,1,.51.21.7.7,0,0,1,.22.52Z"/><path class="b897528a-4737-4773-8ae3-772d8383d250" d="M8.71,26.85a.73.73,0,0,0,.51.21h3.52V14.27H8.5V26.33A.73.73,0,0,0,8.71,26.85Z"/><rect class="ad33ffd1-0d37-4b7e-a37a-d691f524b5e1" x="9.41" y="20.71" width="2.43" height="0.54"/><rect class="ad33ffd1-0d37-4b7e-a37a-d691f524b5e1" x="9.41" y="19.62" width="2.43" height="0.54"/><rect class="ad33ffd1-0d37-4b7e-a37a-d691f524b5e1" x="9.41" y="18.54" width="2.43" height="0.54"/><rect class="ad33ffd1-0d37-4b7e-a37a-d691f524b5e1" x="9.41" y="17.45" width="2.43" height="0.54"/><rect class="e52c8cf8-1fa0-4ec8-abc5-7923e947f1b5" x="9.41" y="16.37" width="2.43" height="0.54"/><rect class="a94a880d-d322-4273-b623-1bc713552bc7" x="14.2" y="16.37" width="13.47" height="3.72"/><rect class="e52c8cf8-1fa0-4ec8-abc5-7923e947f1b5" x="14.2" y="21.25" width="3.72" height="3.71"/><rect class="e52c8cf8-1fa0-4ec8-abc5-7923e947f1b5" x="19.08" y="21.25" width="3.72" height="3.71"/><rect class="e52c8cf8-1fa0-4ec8-abc5-7923e947f1b5" x="23.95" y="21.25" width="3.71" height="3.71"/><path class="fa8ce2d6-7715-47c6-9a67-0e6ba8a9fa2e" d="M10.92,12.41a.61.61,0,1,1-.6-.6A.6.6,0,0,1,10.92,12.41Z"/><path class="e52c8cf8-1fa0-4ec8-abc5-7923e947f1b5" d="M12.74,12.41a.61.61,0,1,1-.6-.6A.6.6,0,0,1,12.74,12.41Z"/><path class="b4dd2559-5e55-4cdd-8f94-493ed178c12b" d="M14.56,12.41a.61.61,0,1,1-.6-.6A.6.6,0,0,1,14.56,12.41Z"/></svg>