<svg id="b9b8adc6-dcba-48e1-bd38-0dac541d2dfe" data-name="Layer 1" xmlns="http://www.w3.org/2000/svg" viewBox="0 0 37.62 37.62"><defs><style>.b21ed0c2-2ccf-446b-8411-c847d76d4320{fill:#fece66;}.bdde43ec-b16f-437f-85f0-7142608e8779{fill:#f5b540;}.f4555a69-26d8-4511-960e-a56dfcc005ee{fill:#fff;}.b1d22d2d-ff99-443c-bf10-f7b5c22ca66f{fill:#343b43;}.fe2c54bd-c8af-472d-b379-26e1c6a464b8{fill:#e6e5e5;}</style></defs><path class="b21ed0c2-2ccf-446b-8411-c847d76d4320" d="M37.62,18.81A18.81,18.81,0,1,1,18.81,0,18.81,18.81,0,0,1,37.62,18.81Z"/><path class="bdde43ec-b16f-437f-85f0-7142608e8779" d="M28.26,16.09a13.31,13.31,0,0,0-21,2.72,13.52,13.52,0,0,0,2.08,2.72l15.2,15.19A18.82,18.82,0,0,0,36.72,24.56Z"/><ellipse class="f4555a69-26d8-4511-960e-a56dfcc005ee" cx="18.81" cy="18.81" rx="11.53" ry="6.66"/><path class="b1d22d2d-ff99-443c-bf10-f7b5c22ca66f" d="M18.81,13.35a5.46,5.46,0,1,0,5.46,5.46A5.45,5.45,0,0,0,18.81,13.35Z"/><path class="fe2c54bd-c8af-472d-b379-26e1c6a464b8" d="M23.18,18.81a4.37,4.37,0,1,1-4.37-4.36A4.37,4.37,0,0,1,23.18,18.81Z"/><path class="b21ed0c2-2ccf-446b-8411-c847d76d4320" d="M21.15,18.81a2.34,2.34,0,1,1-2.34-2.34A2.34,2.34,0,0,1,21.15,18.81Z"/><path class="f4555a69-26d8-4511-960e-a56dfcc005ee" d="M18.17,16.43a1.23,1.23,0,0,1-1.74,1.74,1.23,1.23,0,0,1,1.74-1.74Z"/><path class="f4555a69-26d8-4511-960e-a56dfcc005ee" d="M19.24,18.81a.43.43,0,1,1-.43-.43A.43.43,0,0,1,19.24,18.81Z"/><path class="b1d22d2d-ff99-443c-bf10-f7b5c22ca66f" d="M20.14,23.76V29a1.33,1.33,0,0,1-2.66,0V23.76Z"/></svg>