<svg id="bd49af20-7025-4570-99a3-3ead5281119f" data-name="Layer 1" xmlns="http://www.w3.org/2000/svg" viewBox="0 0 37.62 37.62"><defs><style>.a4c03fad-7345-484f-a6da-2283c675ce05{fill:#fece66;}.fb82f9e8-1433-4c3d-a1cf-cee1ff690ec5{fill:#f5b540;}.a022e96d-cd53-46ea-941d-ec5fe96823cc{fill:#343b43;}.a518275a-dff7-4cad-8d1e-73198f0628b7{fill:#e6e5e5;}.f5822811-c355-4dee-801d-46e7591a84a1{fill:#fff;}</style></defs><path class="a4c03fad-7345-484f-a6da-2283c675ce05" d="M37.62,18.81A18.81,18.81,0,1,1,18.81,0,18.81,18.81,0,0,1,37.62,18.81Z"/><path class="fb82f9e8-1433-4c3d-a1cf-cee1ff690ec5" d="M37.19,22.81,26.64,12.26,18.81,8.62,11,12.26V19a11.59,11.59,0,0,0,3,7.85l10.05,10A18.83,18.83,0,0,0,37.19,22.81Z"/><path class="a022e96d-cd53-46ea-941d-ec5fe96823cc" d="M18.81,8.62,11,12.26V19a11.65,11.65,0,0,0,7.83,11,11.65,11.65,0,0,0,7.83-11V12.26Z"/><path class="a518275a-dff7-4cad-8d1e-73198f0628b7" d="M18.81,10.27V28.38A10.17,10.17,0,0,0,25.15,19V13.22Z"/><path class="f5822811-c355-4dee-801d-46e7591a84a1" d="M12.47,13.22V19a10.17,10.17,0,0,0,6.34,9.41V10.27Z"/><rect class="fb82f9e8-1433-4c3d-a1cf-cee1ff690ec5" x="16.48" y="18" width="4.55" height="3.19" rx="0.23"/><rect class="a4c03fad-7345-484f-a6da-2283c675ce05" x="17.16" y="18" width="3.19" height="3.19"/><path class="a022e96d-cd53-46ea-941d-ec5fe96823cc" d="M19.18,19.33a.43.43,0,1,1-.85,0,.43.43,0,1,1,.85,0Z"/><rect class="a022e96d-cd53-46ea-941d-ec5fe96823cc" x="18.57" y="19.67" width="0.36" height="0.61"/><path class="a022e96d-cd53-46ea-941d-ec5fe96823cc" d="M20.34,18h-.59v-.59a1,1,0,1,0-2,0V18h-.59v-.59a1.59,1.59,0,0,1,2.72-1.12,1.57,1.57,0,0,1,.46,1.12Z"/></svg>