<svg id="afd7c444-fcfd-4308-83d4-91f2009b07be" data-name="Layer 1" xmlns="http://www.w3.org/2000/svg" viewBox="0 0 37.62 37.62"><defs><style>.ac0385a3-0a38-4797-8e12-76961b6bf3e8{fill:#fece66;}.baa909dc-afd5-47fb-a062-deed4d0c8105{fill:#f5b540;}.fb725bb8-266d-4961-8ef9-926c07435ad0{fill:#343b43;}.baaae6e9-d926-464e-ad70-3b6d0d80764c{fill:#fff;}.ed3c07b2-fc70-45c1-9f9d-97bd1e371330{fill:#fd8369;}.bbbd543f-49ed-419a-9a5c-4f1b181308da{fill:#8fdef6;}</style></defs><circle class="ac0385a3-0a38-4797-8e12-76961b6bf3e8" cx="18.81" cy="18.81" r="18.81" transform="translate(-7.79 18.81) rotate(-45)"/><path class="baa909dc-afd5-47fb-a062-deed4d0c8105" d="M28.92,10.78h0a.74.74,0,0,0-.5-.2H9.22a.72.72,0,0,0-.72.73v15a.73.73,0,0,0,.21.52L19.46,37.61A18.81,18.81,0,0,0,37.6,19.46Z"/><path class="fb725bb8-266d-4961-8ef9-926c07435ad0" d="M29.13,26.33a.74.74,0,0,1-.22.52.73.73,0,0,1-.51.21H9.22a.73.73,0,0,1-.51-.21.74.74,0,0,1-.22-.52V14.27H29.13Z"/><path class="baaae6e9-d926-464e-ad70-3b6d0d80764c" d="M29.13,14.27H8.49v-3a.74.74,0,0,1,.22-.52.73.73,0,0,1,.51-.21H28.4a.73.73,0,0,1,.51.21.74.74,0,0,1,.22.52Z"/><polygon class="baaae6e9-d926-464e-ad70-3b6d0d80764c" points="16.1 23.27 13.49 20.67 16.1 18.06 16.78 18.75 14.87 20.67 16.78 22.58 16.1 23.27"/><polygon class="baaae6e9-d926-464e-ad70-3b6d0d80764c" points="21.52 23.27 20.84 22.58 22.75 20.67 20.84 18.75 21.52 18.06 24.13 20.67 21.52 23.27"/><rect class="baaae6e9-d926-464e-ad70-3b6d0d80764c" x="15.03" y="20.18" width="7.57" height="0.97" transform="translate(-6.22 33.1) rotate(-74.11)"/><path class="ed3c07b2-fc70-45c1-9f9d-97bd1e371330" d="M10.92,12.42a.61.61,0,1,1-.61-.61A.6.6,0,0,1,10.92,12.42Z"/><path class="ac0385a3-0a38-4797-8e12-76961b6bf3e8" d="M12.74,12.42a.61.61,0,1,1-.6-.61A.6.6,0,0,1,12.74,12.42Z"/><path class="bbbd543f-49ed-419a-9a5c-4f1b181308da" d="M14.56,12.42a.61.61,0,1,1-.6-.61A.6.6,0,0,1,14.56,12.42Z"/></svg>