<svg id="eff41343-2df9-4101-b906-ad9f96cd1f57" data-name="Layer 1" xmlns="http://www.w3.org/2000/svg" viewBox="0 0 37.62 37.62"><defs><style>.a6cfab91-9fc6-499a-ba81-ca3d31a5edc4{fill:#d8d7d6;}.a09e8d01-4035-4666-929d-326aba6afa51{fill:#c4c3c3;}.ab61e8d2-79ce-4cd7-b962-499908a2a9ff{fill:#fff;}.b5a10e69-0e65-4188-b87b-b4607ea9c981{fill:#343b43;}.b4225c6e-6fa8-41ef-8057-5ef15de12623{fill:#e24f3b;}.ea43e004-9e5a-4690-8c73-94cd34749dde{fill:#f5b540;}.b5e3560d-71df-4463-a2a2-865fd515df28{fill:#70c9e9;}.b8b45521-fd49-40cf-bb5a-de2734142509{fill:#cccbca;}.b80d3924-eca5-4665-b16b-3ae8a65dab4e{fill:#fece66;}.fb9fd0c5-b597-4e9e-bd2f-a886a49027da{fill:#495057;}.a0a8805b-f2b5-4346-af45-94ba53ca0087{fill:#1e262e;}.aa0a46c6-af84-4b08-a8a2-4f989f61fb44{fill:#e6e5e5;}</style></defs><path class="a6cfab91-9fc6-499a-ba81-ca3d31a5edc4" d="M37.62,18.81A18.81,18.81,0,1,1,18.81,0,18.81,18.81,0,0,1,37.62,18.81Z"/><path class="a09e8d01-4035-4666-929d-326aba6afa51" d="M28.91,10.77a.71.71,0,0,0-.51-.21H9.22a.72.72,0,0,0-.72.73v15a.73.73,0,0,0,.21.52L19.46,37.61A18.81,18.81,0,0,0,37.6,19.46Z"/><path class="ab61e8d2-79ce-4cd7-b962-499908a2a9ff" d="M29.13,26.33a.74.74,0,0,1-.22.52.73.73,0,0,1-.51.21H9.22a.72.72,0,0,1-.72-.73V14.27H29.13Z"/><path class="b5a10e69-0e65-4188-b87b-b4607ea9c981" d="M29.13,14.27H8.5v-3a.72.72,0,0,1,.72-.73H28.4a.73.73,0,0,1,.51.21.74.74,0,0,1,.22.52Z"/><path class="b4225c6e-6fa8-41ef-8057-5ef15de12623" d="M10.92,12.42a.61.61,0,1,1-.6-.61A.6.6,0,0,1,10.92,12.42Z"/><path class="ea43e004-9e5a-4690-8c73-94cd34749dde" d="M12.74,12.42a.61.61,0,1,1-.6-.61A.6.6,0,0,1,12.74,12.42Z"/><path class="b5e3560d-71df-4463-a2a2-865fd515df28" d="M14.56,12.42a.61.61,0,1,1-.6-.61A.6.6,0,0,1,14.56,12.42Z"/><polygon class="b8b45521-fd49-40cf-bb5a-de2734142509" points="21.16 16.96 20.9 16.96 20.9 16.43 21.43 16.43 21.43 16.96 21.16 16.96"/><path class="b8b45521-fd49-40cf-bb5a-de2734142509" d="M20.3,17h-.59v-.53h.59Zm-1.19,0h-.59v-.53h.59Zm-1.19,0h-.59v-.53h.59Z"/><rect class="b8b45521-fd49-40cf-bb5a-de2734142509" x="16.21" y="16.43" width="0.53" height="0.54"/><path class="b8b45521-fd49-40cf-bb5a-de2734142509" d="M16.73,20.52h-.52v-.6h.52Zm0-1.19h-.52v-.59h.52Zm0-1.18h-.52v-.6h.52Z"/><rect class="b8b45521-fd49-40cf-bb5a-de2734142509" x="16.21" y="21.11" width="0.53" height="0.54"/><rect class="b8b45521-fd49-40cf-bb5a-de2734142509" x="20.9" y="21.11" width="0.53" height="0.54"/><path class="b8b45521-fd49-40cf-bb5a-de2734142509" d="M21.42,20.52H20.9v-.6h.52Zm0-1.19H20.9v-.59h.52Zm0-1.18H20.9v-.6h.52Z"/><rect class="b80d3924-eca5-4665-b16b-3ae8a65dab4e" x="10.08" y="16.43" width="5.22" height="5.22"/><rect class="b80d3924-eca5-4665-b16b-3ae8a65dab4e" x="22.34" y="16.43" width="5.22" height="5.22"/><rect class="b8b45521-fd49-40cf-bb5a-de2734142509" x="10.07" y="24.09" width="5.22" height="0.82"/><rect class="b8b45521-fd49-40cf-bb5a-de2734142509" x="10.07" y="22.46" width="5.22" height="0.82"/><rect class="b8b45521-fd49-40cf-bb5a-de2734142509" x="22.34" y="24.09" width="5.22" height="0.82"/><rect class="b8b45521-fd49-40cf-bb5a-de2734142509" x="22.34" y="22.46" width="5.22" height="0.82"/><rect class="fb9fd0c5-b597-4e9e-bd2f-a886a49027da" x="17.31" y="21.63" width="1" height="5.43"/><rect class="b5a10e69-0e65-4188-b87b-b4607ea9c981" x="18.31" y="21.63" width="1" height="5.43"/><rect class="a0a8805b-f2b5-4346-af45-94ba53ca0087" x="19.31" y="21.63" width="1" height="5.43"/><polygon class="aa0a46c6-af84-4b08-a8a2-4f989f61fb44" points="20.31 21.63 19.31 19.9 18.31 19.9 17.31 21.63 20.31 21.63"/><polygon class="b8b45521-fd49-40cf-bb5a-de2734142509" points="20.31 21.63 19.31 21.63 18.98 19.9 19.31 19.9 20.31 21.63"/><polygon class="b5a10e69-0e65-4188-b87b-b4607ea9c981" points="19.31 19.9 18.81 19.04 18.31 19.9 19.31 19.9"/></svg>