<svg id="b7ba4ceb-2207-4012-8c4b-dc045246995e" data-name="Layer 1" xmlns="http://www.w3.org/2000/svg" viewBox="0 0 37.62 37.62"><defs><style>.b0e3cebc-5843-4911-b3d6-f70a2af4619d{fill:#d8d7d6;}.e43d6bc1-47fe-4560-9ae0-acd0721bdd50{fill:#c4c3c3;}.b6540cae-a141-466b-82c1-3ea58151ba6d{fill:#d9d8d7;}.b3b426e4-6336-46c7-951e-6965ce398489{fill:#fff;}.e4a4b89f-6b25-4308-b88d-3f75c1eee25d{fill:#343b43;}.e70bfb41-04f3-4b8a-a6bd-6ce8b0738102{fill:#f5b540;}.b8b269b0-13e9-4240-a166-a209aefc02b1{fill:#fece66;}.b009f065-beaf-476a-837d-5e248ea92ad0{fill:#495057;}.e67c229e-d0ce-4030-b522-252f93d0c5a0{fill:#ea6552;}</style></defs><circle class="b0e3cebc-5843-4911-b3d6-f70a2af4619d" cx="18.81" cy="18.81" r="18.81" transform="translate(-3.82 32.8) rotate(-76.72)"/><path class="e43d6bc1-47fe-4560-9ae0-acd0721bdd50" d="M37.61,19.4l-9.26-9.25a.66.66,0,0,0-.48-.21H9.75a.66.66,0,0,0-.48.21.63.63,0,0,0-.2.48V24.75a.69.69,0,0,0,.18.47l0,0h0L21.46,37.43A18.81,18.81,0,0,0,37.61,19.4Z"/><rect class="b6540cae-a141-466b-82c1-3ea58151ba6d" x="15.94" y="25.44" width="5.73" height="2.52"/><rect class="b3b426e4-6336-46c7-951e-6965ce398489" x="14.57" y="27.96" width="8.48" height="0.69"/><path class="e4a4b89f-6b25-4308-b88d-3f75c1eee25d" d="M9.07,23.15V10.63a.68.68,0,0,1,.68-.69H27.87a.69.69,0,0,1,.48.2.7.7,0,0,1,.21.49V23.15Z"/><rect class="b3b426e4-6336-46c7-951e-6965ce398489" x="10.33" y="11.2" width="16.97" height="10.68"/><path class="b3b426e4-6336-46c7-951e-6965ce398489" d="M28.56,24.75a.68.68,0,0,1-.21.49.69.69,0,0,1-.48.2H9.75a.69.69,0,0,1-.48-.2.67.67,0,0,1-.2-.49v-1.6H28.56Z"/><rect class="e70bfb41-04f3-4b8a-a6bd-6ce8b0738102" x="11.01" y="11.89" width="4.74" height="1.61"/><rect class="e70bfb41-04f3-4b8a-a6bd-6ce8b0738102" x="16.44" y="11.89" width="4.74" height="1.61"/><rect class="e70bfb41-04f3-4b8a-a6bd-6ce8b0738102" x="21.87" y="11.89" width="4.74" height="1.61"/><rect class="b8b269b0-13e9-4240-a166-a209aefc02b1" x="11.01" y="14.18" width="4.74" height="3.16"/><rect class="b8b269b0-13e9-4240-a166-a209aefc02b1" x="16.44" y="14.18" width="4.74" height="3.16"/><rect class="b8b269b0-13e9-4240-a166-a209aefc02b1" x="21.87" y="14.18" width="4.74" height="3.16"/><rect class="b8b269b0-13e9-4240-a166-a209aefc02b1" x="11.01" y="18.04" width="15.59" height="3.16"/><rect class="e4a4b89f-6b25-4308-b88d-3f75c1eee25d" x="24.41" y="18.04" width="5.77" height="10.61" rx="0.74"/><rect class="b3b426e4-6336-46c7-951e-6965ce398489" x="24.83" y="19.64" width="4.94" height="7.41"/><rect class="b009f065-beaf-476a-837d-5e248ea92ad0" x="26.69" y="27.67" width="1.2" height="0.35" rx="0.15"/><path class="b009f065-beaf-476a-837d-5e248ea92ad0" d="M27.5,18.84a.2.2,0,0,1-.21.2.2.2,0,0,1-.2-.2.21.21,0,1,1,.41,0Z"/><path class="e4a4b89f-6b25-4308-b88d-3f75c1eee25d" d="M27.37,18.84a.07.07,0,0,1-.08.07.07.07,0,0,1-.07-.07.08.08,0,0,1,.07-.08A.08.08,0,0,1,27.37,18.84Z"/><rect class="e67c229e-d0ce-4030-b522-252f93d0c5a0" x="25.2" y="20.01" width="4.19" height="1.25"/><rect class="e67c229e-d0ce-4030-b522-252f93d0c5a0" x="25.2" y="21.64" width="4.19" height="2.33"/><rect class="e67c229e-d0ce-4030-b522-252f93d0c5a0" x="25.2" y="24.34" width="4.19" height="2.33"/></svg>