<svg id="f877d134-cae2-414d-8dc7-ca106d5eb6e8" data-name="Layer 1" xmlns="http://www.w3.org/2000/svg" viewBox="0 0 37.62 37.62"><defs><style>.f11ba01f-412d-4be4-9421-165df2d3775a{fill:#d8d7d6;}.f94f5710-5634-4bc1-aad4-55d0a55d3a82{fill:#c4c3c3;}.b18a6ef8-f8e1-49ff-9d23-534430ce464d{fill:#e6e5e5;}.af896992-5d46-4053-84d9-47e451e7dd32{fill:#fff;}.be2ac328-0d13-4e96-8c33-e3cd6b3e2a0d{fill:#343b43;}.b1ea5666-09f2-4677-8d31-18389ca00a2a{fill:#fece66;}.e74a3433-6bea-40bc-a4db-535e93dc85c2{fill:#ea6552;}.ba5cad1e-dc17-4c51-9a00-86199bf08256{fill:#fd8369;}.bed6fd87-c54a-480b-832a-631dc316837b{fill:#8fdef6;}</style></defs><circle class="f11ba01f-412d-4be4-9421-165df2d3775a" cx="18.81" cy="18.81" r="18.81" transform="translate(-3.82 32.8) rotate(-76.72)"/><path class="f94f5710-5634-4bc1-aad4-55d0a55d3a82" d="M37.61,19.46l-8.7-8.69a.73.73,0,0,0-.51-.21H9.22a.72.72,0,0,0-.72.73v15a.73.73,0,0,0,.21.52L19.46,37.6A18.81,18.81,0,0,0,37.61,19.46Z"/><path class="b18a6ef8-f8e1-49ff-9d23-534430ce464d" d="M29.13,26.33a.7.7,0,0,1-.22.52.73.73,0,0,1-.51.21H9.22a.72.72,0,0,1-.72-.73V14.27H29.13Z"/><path class="af896992-5d46-4053-84d9-47e451e7dd32" d="M29.13,14.27H8.5v-3a.72.72,0,0,1,.72-.73H28.4a.73.73,0,0,1,.51.21.7.7,0,0,1,.22.52Z"/><path class="be2ac328-0d13-4e96-8c33-e3cd6b3e2a0d" d="M8.71,26.85a.73.73,0,0,0,.51.21h3.52V14.27H8.5V26.33A.73.73,0,0,0,8.71,26.85Z"/><rect class="af896992-5d46-4053-84d9-47e451e7dd32" x="9.41" y="20.71" width="2.43" height="0.54"/><rect class="af896992-5d46-4053-84d9-47e451e7dd32" x="9.41" y="19.62" width="2.43" height="0.54"/><rect class="af896992-5d46-4053-84d9-47e451e7dd32" x="9.41" y="18.54" width="2.43" height="0.54"/><rect class="af896992-5d46-4053-84d9-47e451e7dd32" x="9.41" y="17.45" width="2.43" height="0.54"/><rect class="b1ea5666-09f2-4677-8d31-18389ca00a2a" x="9.41" y="16.37" width="2.43" height="0.54"/><rect class="e74a3433-6bea-40bc-a4db-535e93dc85c2" x="14.2" y="16.37" width="13.47" height="3.72"/><rect class="b1ea5666-09f2-4677-8d31-18389ca00a2a" x="14.2" y="21.25" width="3.72" height="3.71"/><rect class="b1ea5666-09f2-4677-8d31-18389ca00a2a" x="19.08" y="21.25" width="3.72" height="3.71"/><rect class="b1ea5666-09f2-4677-8d31-18389ca00a2a" x="23.95" y="21.25" width="3.71" height="3.71"/><path class="ba5cad1e-dc17-4c51-9a00-86199bf08256" d="M10.92,12.41a.61.61,0,1,1-.6-.6A.6.6,0,0,1,10.92,12.41Z"/><path class="b1ea5666-09f2-4677-8d31-18389ca00a2a" d="M12.74,12.41a.61.61,0,1,1-.6-.6A.6.6,0,0,1,12.74,12.41Z"/><path class="bed6fd87-c54a-480b-832a-631dc316837b" d="M14.56,12.41a.61.61,0,1,1-.6-.6A.6.6,0,0,1,14.56,12.41Z"/></svg>