<svg id="e97dc4dd-16d9-4510-a59b-aaa35fa2ac8d" data-name="Layer 1" xmlns="http://www.w3.org/2000/svg" viewBox="0 0 37.62 37.62"><defs><style>.e6ad2e63-9ea9-437c-8988-bcbd237ec8b6{fill:#fece66;}.f18749db-bca8-4c2b-901b-923213f1af2c{fill:#f5b540;}.e6985db9-6217-4eda-9ae2-109daa8bada9{fill:#cccbca;}.b7c6c3ed-1d32-4a30-a3c7-b27bdcd0691c{fill:#fff;}.e49cc81d-524a-44c0-8d58-19d4238a5374{fill:#343b43;}.a006fe35-c423-4d6c-8f38-562ffa7acba8{fill:#d9d8d7;}.a2cb3f5b-5409-485e-bd4a-35bd9abf16ec{fill:#ea6552;}.e848c4df-ab74-472a-a047-29fde12bd396{fill:#fd8369;}</style></defs><circle class="e6ad2e63-9ea9-437c-8988-bcbd237ec8b6" cx="18.81" cy="18.81" r="18.81" transform="translate(-7.79 18.81) rotate(-45)"/><path class="f18749db-bca8-4c2b-901b-923213f1af2c" d="M37.62,18.81h0l-8.7-8.7h0a.78.78,0,0,0-.51-.2H9.22a.72.72,0,0,0-.72.72v15a.73.73,0,0,0,.19.5l0,0h0L20.21,37.56A18.8,18.8,0,0,0,37.62,18.81Z"/><rect class="e6985db9-6217-4eda-9ae2-109daa8bada9" x="15.78" y="26.28" width="6.07" height="2.67"/><rect class="b7c6c3ed-1d32-4a30-a3c7-b27bdcd0691c" x="14.32" y="28.95" width="8.98" height="0.73"/><path class="e49cc81d-524a-44c0-8d58-19d4238a5374" d="M8.5,23.85V10.61a.72.72,0,0,1,.72-.73H28.4a.73.73,0,0,1,.51.21.74.74,0,0,1,.22.52V23.85Z"/><rect class="b7c6c3ed-1d32-4a30-a3c7-b27bdcd0691c" x="9.83" y="11.21" width="17.96" height="11.31"/><path class="b7c6c3ed-1d32-4a30-a3c7-b27bdcd0691c" d="M29.13,25.55a.76.76,0,0,1-.22.52.73.73,0,0,1-.51.21H9.22a.73.73,0,0,1-.51-.21.75.75,0,0,1-.21-.52v-1.7H29.13Z"/><rect class="e6ad2e63-9ea9-437c-8988-bcbd237ec8b6" x="11.63" y="15.73" width="5.39" height="5.39"/><rect class="e49cc81d-524a-44c0-8d58-19d4238a5374" x="18.81" y="15.73" width="3.59" height="0.54"/><rect class="a006fe35-c423-4d6c-8f38-562ffa7acba8" x="18.81" y="16.8" width="7.19" height="0.54"/><rect class="a006fe35-c423-4d6c-8f38-562ffa7acba8" x="18.81" y="17.88" width="7.19" height="0.54"/><rect class="a006fe35-c423-4d6c-8f38-562ffa7acba8" x="18.81" y="18.96" width="7.19" height="0.54"/><rect class="a2cb3f5b-5409-485e-bd4a-35bd9abf16ec" x="20.61" y="20.04" width="3.59" height="1.08"/><path class="e848c4df-ab74-472a-a047-29fde12bd396" d="M9.83,11.21v2.21a.9.9,0,1,0,1.8,0V11.21Z"/><path class="a2cb3f5b-5409-485e-bd4a-35bd9abf16ec" d="M11.63,11.21v2.21a.9.9,0,1,0,1.79,0V11.21Z"/><path class="e848c4df-ab74-472a-a047-29fde12bd396" d="M13.42,11.21v2.21a.9.9,0,1,0,1.8,0V11.21Z"/><path class="a2cb3f5b-5409-485e-bd4a-35bd9abf16ec" d="M15.22,11.21v2.21a.9.9,0,1,0,1.8,0V11.21Z"/><path class="e848c4df-ab74-472a-a047-29fde12bd396" d="M17,11.21v2.21a.9.9,0,1,0,1.79,0V11.21Z"/><path class="a2cb3f5b-5409-485e-bd4a-35bd9abf16ec" d="M18.81,11.21v2.21a.9.9,0,1,0,1.8,0V11.21Z"/><path class="e848c4df-ab74-472a-a047-29fde12bd396" d="M20.61,11.21v2.21a.9.9,0,1,0,1.79,0V11.21Z"/><path class="a2cb3f5b-5409-485e-bd4a-35bd9abf16ec" d="M22.4,11.21v2.21a.9.9,0,1,0,1.8,0V11.21Z"/><path class="a2cb3f5b-5409-485e-bd4a-35bd9abf16ec" d="M26,11.21v2.21a.9.9,0,1,0,1.79,0V11.21Z"/><path class="e848c4df-ab74-472a-a047-29fde12bd396" d="M24.2,11.21v2.21a.9.9,0,1,0,1.8,0V11.21Z"/></svg>