<svg id="a27cb544-bdfe-43b1-800b-908cbd0dd9c5" data-name="Layer 1" xmlns="http://www.w3.org/2000/svg" viewBox="0 0 37.62 37.62"><defs><style>.a67cc77c-3065-45a7-a0f8-2887f1b29dff{fill:#fece66;}.ab570e06-bfbb-40b0-aa84-bd9d39b611f7{fill:#f5b540;}.b092b200-e343-4f31-9227-af24b256ab7f{fill:#343b43;}.aa2eb5d9-eb3c-47b0-8ede-431de1c06fd1{fill:#e6e5e5;}.f57406b2-6fe7-4f5c-a40e-f3b15cf35006{fill:#fff;}</style></defs><path class="a67cc77c-3065-45a7-a0f8-2887f1b29dff" d="M37.62,18.81A18.81,18.81,0,1,1,18.81,0,18.81,18.81,0,0,1,37.62,18.81Z"/><path class="ab570e06-bfbb-40b0-aa84-bd9d39b611f7" d="M37.19,22.81,26.64,12.26,18.81,8.62,11,12.26V19a11.59,11.59,0,0,0,3,7.85l10.05,10A18.83,18.83,0,0,0,37.19,22.81Z"/><path class="b092b200-e343-4f31-9227-af24b256ab7f" d="M18.81,8.62,11,12.26V19a11.65,11.65,0,0,0,7.83,11,11.65,11.65,0,0,0,7.83-11V12.26Z"/><path class="aa2eb5d9-eb3c-47b0-8ede-431de1c06fd1" d="M18.81,10.27V28.38A10.17,10.17,0,0,0,25.15,19V13.22Z"/><path class="f57406b2-6fe7-4f5c-a40e-f3b15cf35006" d="M12.47,13.22V19a10.17,10.17,0,0,0,6.34,9.41V10.27Z"/><rect class="ab570e06-bfbb-40b0-aa84-bd9d39b611f7" x="16.48" y="18" width="4.55" height="3.19" rx="0.23"/><rect class="a67cc77c-3065-45a7-a0f8-2887f1b29dff" x="17.16" y="18" width="3.19" height="3.19"/><path class="b092b200-e343-4f31-9227-af24b256ab7f" d="M19.18,19.33a.43.43,0,1,1-.85,0,.43.43,0,1,1,.85,0Z"/><rect class="b092b200-e343-4f31-9227-af24b256ab7f" x="18.57" y="19.67" width="0.36" height="0.61"/><path class="b092b200-e343-4f31-9227-af24b256ab7f" d="M20.34,18h-.59v-.59a1,1,0,1,0-2,0V18h-.59v-.59a1.59,1.59,0,0,1,2.72-1.12,1.57,1.57,0,0,1,.46,1.12Z"/></svg>