<svg id="b93a9b30-60de-4e14-89ce-d6aa8b570eac" data-name="Layer 1" xmlns="http://www.w3.org/2000/svg" viewBox="0 0 37.62 37.62"><defs><style>.a85a7298-17d2-43cd-8795-cb7a25f7ecfc{fill:#fece66;}.a2977e50-211e-441c-9b50-8e5f9f78b3cb{fill:#f5b540;}.b1f2c0f5-24d0-4174-8a86-33b9e936a4ba{fill:#fff;}.e3a0fd4d-304a-4a80-b03e-cfce1a523b51{fill:#343b43;}.bcd2299a-ddda-4b19-b158-425871717bfc{fill:#e6e5e5;}</style></defs><path class="a85a7298-17d2-43cd-8795-cb7a25f7ecfc" d="M37.62,18.81A18.81,18.81,0,1,1,18.81,0,18.81,18.81,0,0,1,37.62,18.81Z"/><path class="a2977e50-211e-441c-9b50-8e5f9f78b3cb" d="M28.26,16.09a13.31,13.31,0,0,0-21,2.72,13.52,13.52,0,0,0,2.08,2.72l15.2,15.19A18.82,18.82,0,0,0,36.72,24.56Z"/><ellipse class="b1f2c0f5-24d0-4174-8a86-33b9e936a4ba" cx="18.81" cy="18.81" rx="11.53" ry="6.66"/><path class="e3a0fd4d-304a-4a80-b03e-cfce1a523b51" d="M18.81,13.35a5.46,5.46,0,1,0,5.46,5.46A5.45,5.45,0,0,0,18.81,13.35Z"/><path class="bcd2299a-ddda-4b19-b158-425871717bfc" d="M23.18,18.81a4.37,4.37,0,1,1-4.37-4.36A4.37,4.37,0,0,1,23.18,18.81Z"/><path class="a85a7298-17d2-43cd-8795-cb7a25f7ecfc" d="M21.15,18.81a2.34,2.34,0,1,1-2.34-2.34A2.34,2.34,0,0,1,21.15,18.81Z"/><path class="b1f2c0f5-24d0-4174-8a86-33b9e936a4ba" d="M18.17,16.43a1.23,1.23,0,0,1-1.74,1.74,1.23,1.23,0,0,1,1.74-1.74Z"/><path class="b1f2c0f5-24d0-4174-8a86-33b9e936a4ba" d="M19.24,18.81a.43.43,0,1,1-.43-.43A.43.43,0,0,1,19.24,18.81Z"/><path class="e3a0fd4d-304a-4a80-b03e-cfce1a523b51" d="M20.14,23.76V29a1.33,1.33,0,0,1-2.66,0V23.76Z"/></svg>