<svg id="adace1ba-0f67-4de0-85fc-dd58e0bd3962" data-name="Layer 1" xmlns="http://www.w3.org/2000/svg" viewBox="0 0 37.62 37.62"><defs><style>.ed17d138-99ef-4574-abb2-f015c75a0a80{fill:#fece66;}.f11c1445-ba1e-4ef0-a81c-1bad06a21752{fill:#f5b540;}.b989e986-c08f-48d9-b4f5-159e9761b3d6{fill:#343b43;}.fe382b6d-bbd4-4ff2-b8d2-d919ffc68442{fill:#fff;}.bf077f71-bc49-4fd0-83ce-37968a09b8fd{fill:#fd8369;}.a10e47a4-c85c-459a-92b1-64ed001c1822{fill:#8fdef6;}</style></defs><circle class="ed17d138-99ef-4574-abb2-f015c75a0a80" cx="18.81" cy="18.81" r="18.81" transform="translate(-7.79 18.81) rotate(-45)"/><path class="f11c1445-ba1e-4ef0-a81c-1bad06a21752" d="M28.92,10.78h0a.74.74,0,0,0-.5-.2H9.22a.72.72,0,0,0-.72.73v15a.73.73,0,0,0,.21.52L19.46,37.61A18.81,18.81,0,0,0,37.6,19.46Z"/><path class="b989e986-c08f-48d9-b4f5-159e9761b3d6" d="M29.13,26.33a.74.74,0,0,1-.22.52.73.73,0,0,1-.51.21H9.22a.73.73,0,0,1-.51-.21.74.74,0,0,1-.22-.52V14.27H29.13Z"/><path class="fe382b6d-bbd4-4ff2-b8d2-d919ffc68442" d="M29.13,14.27H8.49v-3a.74.74,0,0,1,.22-.52.73.73,0,0,1,.51-.21H28.4a.73.73,0,0,1,.51.21.74.74,0,0,1,.22.52Z"/><polygon class="fe382b6d-bbd4-4ff2-b8d2-d919ffc68442" points="16.1 23.27 13.49 20.67 16.1 18.06 16.78 18.75 14.87 20.67 16.78 22.58 16.1 23.27"/><polygon class="fe382b6d-bbd4-4ff2-b8d2-d919ffc68442" points="21.52 23.27 20.84 22.58 22.75 20.67 20.84 18.75 21.52 18.06 24.13 20.67 21.52 23.27"/><rect class="fe382b6d-bbd4-4ff2-b8d2-d919ffc68442" x="15.03" y="20.18" width="7.57" height="0.97" transform="translate(-6.22 33.1) rotate(-74.11)"/><path class="bf077f71-bc49-4fd0-83ce-37968a09b8fd" d="M10.92,12.41a.61.61,0,1,1-.61-.6A.61.61,0,0,1,10.92,12.41Z"/><path class="ed17d138-99ef-4574-abb2-f015c75a0a80" d="M12.74,12.41a.61.61,0,1,1-.6-.6A.6.6,0,0,1,12.74,12.41Z"/><path class="a10e47a4-c85c-459a-92b1-64ed001c1822" d="M14.56,12.41a.61.61,0,1,1-.6-.6A.6.6,0,0,1,14.56,12.41Z"/></svg>