<svg xmlns="http://www.w3.org/2000/svg" width="14.352" height="10.764" viewBox="0 0 14.352 10.764">
  <path id="envelope-regular_1_" data-name="envelope-regular (1)" d="M1.794,65.346a.45.45,0,0,0-.449.449v.619l4.835,3.969a1.568,1.568,0,0,0,1.993,0l4.833-3.969v-.619a.45.45,0,0,0-.449-.449Zm-.449,2.809V72.97a.45.45,0,0,0,.449.449H12.558a.45.45,0,0,0,.449-.449V68.154l-3.98,3.268a2.915,2.915,0,0,1-3.7,0ZM0,65.794A1.8,1.8,0,0,1,1.794,64H12.558a1.8,1.8,0,0,1,1.794,1.794V72.97a1.8,1.8,0,0,1-1.794,1.794H1.794A1.8,1.8,0,0,1,0,72.97Z" transform="translate(0 -64)" fill="#9e9e9e"/>
</svg>
