<svg id="Group_565" data-name="Group 565" xmlns="http://www.w3.org/2000/svg" xmlns:xlink="http://www.w3.org/1999/xlink" width="33.86" height="32.272" viewBox="0 0 33.86 32.272">
  <defs>
    <clipPath id="clip-path">
      <rect id="Rectangle_321" data-name="Rectangle 321" width="33.86" height="32.272" fill="#fff"/>
    </clipPath>
  </defs>
  <g id="Group_564" data-name="Group 564" clip-path="url(#clip-path)">
    <path id="Path_7" data-name="Path 7" d="M16.93,0C7.6,0,0,6.166,0,13.743,0,20.532,6.02,26.22,14.158,27.3c1.983.426,1.754,1.152,1.308,3.82-.073.426-.343,1.671,1.464.913s9.747-5.74,13.307-9.83a12.263,12.263,0,0,0,3.623-8.46C33.86,6.166,26.262,0,16.93,0M10.951,17.781a.328.328,0,0,1-.332.332H5.875a.35.35,0,0,1-.228-.093.305.305,0,0,1-.093-.228v-7.38a.328.328,0,0,1,.332-.332H7.069a.328.328,0,0,1,.332.332v5.854h3.228a.332.332,0,0,1,.322.332Zm2.865.01a.328.328,0,0,1-.332.332H12.3a.328.328,0,0,1-.332-.332v-7.38a.328.328,0,0,1,.332-.332h1.183a.334.334,0,0,1,.332.332Zm8.18,0a.328.328,0,0,1-.332.332H20.48a.343.343,0,0,1-.27-.135l-3.384-4.567V17.8a.328.328,0,0,1-.332.332H15.311a.328.328,0,0,1-.332-.332v-7.38a.328.328,0,0,1,.332-.332h1.173a.313.313,0,0,1,.27.145L20.137,14.8v-4.38a.328.328,0,0,1,.332-.332h1.183a.328.328,0,0,1,.343.322Zm6.56-6.2a.328.328,0,0,1-.332.332H25v1.246h3.228a.328.328,0,0,1,.332.332V14.7a.328.328,0,0,1-.332.332H25v1.246h3.228a.328.328,0,0,1,.332.332v1.183a.328.328,0,0,1-.332.332H23.48a.334.334,0,0,1-.332-.332v-7.38a.334.334,0,0,1,.332-.332h4.744a.349.349,0,0,1,.332.332Z" transform="translate(0)" fill="#fff"/>
  </g>
</svg>
