<svg xmlns="http://www.w3.org/2000/svg" width="31.2" height="31.198" viewBox="0 0 31.2 31.198">
  <path id="facebook-messenger-brands" d="M23.635,8C14.826,8,8,14.437,8,23.133a14.789,14.789,0,0,0,4.911,11.193c.525.472.417.746.506,3.663a1.253,1.253,0,0,0,1.754,1.105c3.328-1.466,3.371-1.581,3.935-1.428C28.749,40.319,39.2,34.149,39.2,23.133,39.2,14.437,32.443,8,23.635,8Zm9.388,11.645-4.592,7.27a2.351,2.351,0,0,1-3.391.625l-3.653-2.734a.944.944,0,0,0-1.132,0l-4.93,3.739a.742.742,0,0,1-1.076-.986l4.592-7.27a2.35,2.35,0,0,1,3.391-.625L25.883,22.4a.944.944,0,0,0,1.132,0l4.932-3.735a.74.74,0,0,1,1.075.983Z" transform="translate(-8 -8)" fill="#fff"/>
</svg>
