<svg xmlns="http://www.w3.org/2000/svg" width="105.023" height="69.555" viewBox="0 0 105.023 69.555">
  <path id="Path_1374" data-name="Path 1374" d="M88.964,24.1a16.518,16.518,0,0,0-13.025,5.7A3.477,3.477,0,0,1,73.311,31h-.068a3.681,3.681,0,0,1-3.688-3.676V5.9H15.282A15.281,15.281,0,0,0,0,21.177V75.451H22.67A3.666,3.666,0,0,0,25.1,72v0a3.654,3.654,0,0,0-1.251-2.751A16.511,16.511,0,0,1,18.2,56.273a16.583,16.583,0,0,1,33.157.523,16.515,16.515,0,0,1-5.506,12.319,3.986,3.986,0,0,0-1.369,2.377,3.665,3.665,0,0,0,2.4,3.96h22.67V54.2a3.827,3.827,0,0,1,2.463-3.65,3.67,3.67,0,0,1,4,1.076A16.569,16.569,0,0,0,105,39.865,16.7,16.7,0,0,0,88.964,24.1" transform="translate(0 -5.896)" fill="#556eda"/>
</svg>
