<svg xmlns="http://www.w3.org/2000/svg" width="69.554" height="105.022" viewBox="0 0 69.554 105.022">
  <path id="Path_1375" data-name="Path 1375" d="M144.964,69.553h21.427V15.279A15.28,15.28,0,0,0,151.112,0H96.837V23.557a3.677,3.677,0,0,0,3,1.546H99.9a3.475,3.475,0,0,0,2.628-1.2A16.517,16.517,0,0,1,115.555,18.2a16.583,16.583,0,0,1-.523,33.157A16.513,16.513,0,0,1,102.6,45.732a3.667,3.667,0,0,0-3.994-1.074,3.545,3.545,0,0,0-1.774,1.39V69.553h21.429a3.676,3.676,0,0,1,3.676,3.676,3.718,3.718,0,0,1-1.283,2.781A16.57,16.57,0,0,0,132.423,105,16.708,16.708,0,0,0,148.19,88.961a16.524,16.524,0,0,0-5.649-12.977,3.656,3.656,0,0,1-1.253-2.751v0a3.675,3.675,0,0,1,3.676-3.676" transform="translate(-96.837)" fill="#ffbc21"/>
</svg>
