<svg xmlns="http://www.w3.org/2000/svg" width="35" height="29.063" viewBox="0 0 35 29.063">
  <path id="small-quote" d="M4.747,17.078H7.585c5.676,0,6.622,2.725,6.622,6.357a6.963,6.963,0,0,1-6.622,6.357C1.909,28.885.018,24.344.018,17.986.018,8.9,9.477,3.455,15.153.73L16.1,3.455C10.423,6.179,5.693,9.812,4.747,17.078Zm19.865,0H27.45c5.676,0,6.622,2.725,6.622,6.357a6.963,6.963,0,0,1-6.622,6.357c-5.676-.908-8.514-5.449-8.514-11.807C18.937,8.9,28.4,3.455,34.072.73l.946,2.725C29.342,6.179,24.612,9.812,24.612,17.078Z" transform="translate(-0.018 -0.73)" fill="#11948a"/>
</svg>
